<?xml version="1.0" standalone="no"?>
<!DOCTYPE svg PUBLIC "-//W3C//DTD SVG 20010904//EN"
 "http://www.w3.org/TR/2001/REC-SVG-20010904/DTD/svg10.dtd">
<svg version="1.0" xmlns="http://www.w3.org/2000/svg"
 width="612.000000pt" height="612.000000pt" viewBox="0 0 612.000000 612.000000"
 preserveAspectRatio="xMidYMid meet">

<g transform="translate(0.000000,612.000000) scale(0.100000,-0.100000)"
fill="#000000" stroke="none">
<path d="M0 3060 l0 -3060 3060 0 3060 0 0 3060 0 3060 -3060 0 -3060 0 0
-3060z m3133 2353 c-16 -3 -23 -12 -23 -29 0 -13 -4 -24 -10 -24 -5 0 -10 -6
-10 -14 0 -24 -41 -67 -79 -82 -28 -11 -37 -20 -37 -37 1 -29 -33 -36 -41 -8
-5 20 -6 20 -18 4 -13 -17 -14 -17 -34 1 -19 18 -21 18 -44 -8 -21 -22 -26
-24 -42 -12 -22 16 -74 5 -88 -19 -6 -11 -17 -14 -41 -9 -26 4 -35 2 -40 -11
-4 -12 -13 -15 -27 -12 -18 5 -89 -21 -139 -52 -8 -5 -33 -16 -55 -26 -21 -9
-45 -25 -53 -36 -7 -10 -20 -19 -28 -19 -8 0 -14 -6 -14 -14 0 -8 -22 -27 -50
-42 -27 -15 -50 -33 -50 -41 0 -14 -36 -18 -44 -5 -3 5 3 21 13 36 12 17 20
23 23 15 3 -9 8 -8 19 5 30 36 64 66 75 66 7 0 14 7 18 15 3 8 12 15 20 15 8
0 28 19 45 42 17 23 31 37 31 31 0 -7 -4 -15 -10 -18 -5 -3 -15 -15 -20 -26
-16 -29 4 -23 39 12 17 17 37 29 44 26 16 -6 108 29 118 44 3 6 20 13 37 15
54 6 164 56 198 91 19 18 34 30 34 25 0 -11 -50 -57 -78 -72 -44 -22 -16 -20
52 5 87 31 126 59 119 84 -3 13 2 23 16 31 12 6 19 15 16 20 -3 5 -1 11 4 14
5 3 11 -13 13 -35 3 -37 0 -44 -37 -75 l-40 -35 40 17 c90 37 105 45 114 62 5
9 6 31 3 47 l-6 30 -7 -30 c-7 -30 -7 -30 -8 -3 -1 32 16 44 67 45 20 0 27 -1
15 -4z m-113 -7 c0 -3 -4 -8 -10 -11 -5 -3 -10 -1 -10 4 0 6 5 11 10 11 6 0
10 -2 10 -4z m222 -8 c-9 -9 -15 -9 -24 0 -9 9 -7 12 12 12 19 0 21 -3 12 -12z
m-235 -50 c-3 -7 -5 -2 -5 12 0 14 2 19 5 13 2 -7 2 -19 0 -25z m569 -40 c4
-6 -2 -19 -14 -29 -12 -9 -22 -26 -22 -36 0 -11 -9 -29 -20 -41 -23 -24 -80
-57 -80 -45 0 4 -5 2 -11 -4 -13 -13 27 -109 59 -141 11 -11 23 -29 27 -41 3
-12 15 -26 26 -31 22 -12 25 -36 7 -43 -13 -4 79 -99 115 -118 35 -20 17 16
-30 59 -26 23 -43 42 -36 42 6 0 15 -4 18 -10 3 -5 10 -10 16 -10 5 0 -13 27
-40 61 -51 63 -111 166 -111 190 0 8 12 -10 25 -40 37 -78 104 -169 173 -233
59 -54 176 -138 193 -138 20 0 7 21 -23 36 -52 27 -231 213 -261 271 -32 61
-35 93 -9 93 14 0 15 -2 2 -10 -12 -8 -11 -15 8 -55 27 -56 102 -159 109 -151
3 3 -12 29 -34 58 -43 59 -68 112 -59 127 3 5 20 12 36 16 38 8 60 40 60 87 0
43 22 56 64 37 21 -10 23 -14 12 -23 -11 -9 -13 -22 -6 -65 10 -58 6 -75 -16
-67 -7 3 -30 -2 -50 -10 l-36 -15 22 -24 c15 -16 18 -24 9 -27 -8 -3 2 -19 26
-44 21 -21 31 -30 22 -18 -20 25 -21 34 -4 34 6 0 20 -14 29 -30 19 -33 35
-38 44 -15 4 8 12 15 20 15 7 0 25 11 39 25 34 35 34 82 -2 111 -18 14 -24 26
-20 38 9 22 54 18 49 -4 -2 -8 2 -41 8 -72 16 -73 8 -102 -30 -118 -28 -12
-44 -50 -21 -50 5 0 12 -8 16 -17 3 -10 21 -35 41 -56 34 -36 36 -37 62 -23
15 9 35 18 45 22 10 4 17 17 17 34 0 27 -21 88 -36 103 -4 4 -9 15 -10 25 -1
9 -4 24 -8 32 -3 8 -1 22 4 30 8 13 11 13 26 -2 16 -16 16 -18 1 -24 -23 -8
-21 -21 3 -27 18 -5 25 -27 21 -64 -1 -6 4 -15 11 -19 7 -4 10 -4 6 1 -11 12
21 38 38 31 10 -4 13 -13 9 -26 -8 -25 3 -60 18 -60 7 0 22 -8 35 -18 18 -14
21 -23 15 -40 l-8 -22 -33 29 c-17 17 -32 28 -32 25 0 -9 69 -139 84 -159 18
-23 21 -13 5 17 -7 13 -7 24 -1 30 12 12 55 1 47 -12 -3 -5 6 -30 20 -56 14
-26 25 -52 25 -58 0 -7 9 -29 20 -51 11 -21 19 -44 18 -50 -2 -5 2 -28 9 -50
26 -91 35 -170 40 -360 7 -243 -2 -304 -53 -352 -46 -43 -104 -53 -297 -52
-180 1 -157 12 48 23 140 7 183 17 215 51 22 24 16 37 -7 14 -6 -6 -35 -12
-64 -14 -30 -1 -62 -6 -72 -10 -25 -11 -64 13 -82 48 -13 27 -13 33 0 54 9 12
23 23 33 23 32 0 54 39 58 103 2 33 6 62 9 65 3 3 -2 15 -10 28 -12 19 -12 24
0 34 18 15 19 33 3 63 -7 12 -14 23 -14 25 -2 5 -107 -46 -164 -79 -30 -18
-49 -26 -42 -17 11 14 162 96 202 110 8 3 12 9 8 13 -4 4 -28 0 -54 -9 -26 -9
-49 -14 -52 -12 -2 3 22 12 53 22 55 18 57 19 50 49 -18 84 -18 95 -1 101 28
11 36 -8 39 -92 1 -43 7 -82 12 -86 6 -5 5 -15 -3 -29 -11 -18 -12 -26 -1 -45
7 -13 16 -24 19 -24 8 0 24 37 34 75 3 11 3 2 1 -19 -2 -22 -14 -49 -27 -63
-20 -21 -22 -33 -19 -93 3 -74 -18 -130 -49 -130 -41 0 -53 -51 -17 -67 26
-12 102 -2 139 18 57 31 58 35 55 276 l-2 222 -37 34 c-21 19 -38 41 -38 48 0
7 7 4 16 -9 8 -12 24 -27 34 -32 18 -10 19 -8 10 16 -7 18 -7 30 0 39 8 9 6
14 -5 19 -8 3 -15 15 -15 27 0 11 -10 30 -22 41 -13 11 -17 17 -10 13 16 -8
15 2 -4 58 -9 26 -28 60 -43 75 -14 15 -33 38 -42 52 -16 24 -16 24 -11 -27 4
-45 2 -54 -14 -59 -41 -15 -44 -24 -24 -65 11 -21 22 -51 24 -66 2 -15 7 -36
11 -46 10 -25 -10 -46 -27 -29 -7 7 -13 18 -14 25 -2 25 -17 57 -26 57 -5 0
-7 3 -4 8 2 4 -2 22 -9 39 -11 26 -21 33 -52 38 -21 4 -51 11 -68 16 -26 7
-24 8 10 3 22 -3 52 -1 65 4 21 8 7 15 -105 51 -72 23 -148 50 -170 61 -36 18
-30 20 12 3 41 -16 -3 17 -88 67 -122 72 -310 256 -281 274 5 3 21 -11 35 -31
35 -48 206 -202 258 -231 57 -33 40 -10 -29 37 -99 67 -253 245 -236 273 4 6
3 8 -3 5 -14 -9 -24 17 -29 75 -4 45 -3 47 31 63 19 10 45 15 58 11 18 -4 27
1 40 23 22 38 22 39 -9 33 -22 -4 -25 -2 -22 19 2 16 10 24 23 24 11 0 24 6
28 13 10 15 34 16 43 0z m-326 -33 c0 -8 -59 -35 -77 -35 -10 1 -1 7 20 15 21
7 41 16 44 19 8 7 13 8 13 1z m-107 -42 c-7 -2 -19 -2 -25 0 -7 3 -2 5 12 5
14 0 19 -2 13 -5z m-726 -65 c-3 -7 -5 -2 -5 12 0 14 2 19 5 13 2 -7 2 -19 0
-25z m933 28 c0 -2 -9 -6 -20 -9 -11 -3 -18 -1 -14 4 5 9 34 13 34 5z m240
-16 c-6 -11 -13 -20 -16 -20 -2 0 0 9 6 20 6 11 13 20 16 20 2 0 0 -9 -6 -20z
m-693 -125 c17 -33 41 -71 52 -85 l22 -25 -7 25 c-5 20 -1 17 20 -13 14 -21
26 -45 26 -53 0 -16 -39 -34 -73 -34 -19 0 -18 2 7 15 16 9 36 13 43 11 18 -7
16 16 -3 40 -14 18 -15 18 -10 -6 3 -14 3 -19 0 -12 -3 6 -9 10 -14 7 -4 -3
-14 3 -21 12 -12 14 -12 16 0 9 9 -6 12 -4 9 5 -3 8 -10 14 -16 14 -5 0 -14 4
-19 9 -5 5 -2 6 6 1 7 -4 12 -4 9 1 -2 5 -23 47 -46 93 -23 47 -42 94 -41 105
0 12 6 4 13 -19 7 -22 27 -67 43 -100z m212 85 c0 -9 -4 -8 -9 5 -5 11 -9 27
-9 35 0 9 4 8 9 -5 5 -11 9 -27 9 -35z m446 10 c-3 -5 -12 -10 -18 -10 -7 0
-6 4 3 10 19 12 23 12 15 0z m-406 -105 c0 -5 -8 6 -19 25 -11 19 -19 40 -19
45 0 6 8 -6 19 -25 11 -19 19 -39 19 -45z m205 38 c9 -18 14 -33 12 -33 -6 0
-36 55 -36 66 0 11 5 3 24 -33z m-1145 -62 c1 -51 -5 -34 -12 29 -4 36 -3 46
3 30 4 -14 8 -40 9 -59z m440 49 c11 -24 11 -24 -3 -6 -9 11 -16 24 -16 30 0
12 5 7 19 -24z m315 14 c3 -8 2 -12 -4 -9 -6 3 -10 10 -10 16 0 14 7 11 14 -7z
m185 -127 c37 -54 36 -71 -6 -81 -83 -21 -115 -73 -73 -118 40 -43 28 -52 -76
-63 -76 -8 -237 -65 -270 -96 -11 -10 -23 -19 -27 -19 -4 0 -23 -18 -43 -40
-20 -22 -41 -40 -48 -40 -6 0 -16 -10 -21 -22 -12 -27 -30 -22 -30 9 -1 12 -9
30 -18 41 -9 10 -17 22 -17 27 0 4 11 -4 25 -19 l24 -26 34 35 c19 19 42 35
51 35 10 0 20 9 23 19 3 11 12 22 20 25 13 5 13 9 2 24 -13 16 -12 16 7 0 27
-23 41 -23 54 2 7 12 25 22 49 26 58 9 66 17 47 46 -20 30 -12 118 11 118 22
0 28 -31 10 -45 -21 -15 -22 -48 -2 -65 8 -7 15 -19 15 -26 0 -17 11 -18 34
-1 17 12 17 14 -1 45 -16 29 -17 34 -3 59 16 28 83 73 110 73 8 0 -3 -9 -25
-19 -77 -34 -95 -77 -55 -128 19 -24 24 -23 21 2 -1 6 5 2 13 -8 20 -26 72
-20 68 8 -15 86 -14 92 13 114 15 11 45 26 66 33 22 6 39 14 39 18 0 4 -13 25
-28 46 -41 57 -82 131 -82 146 0 7 13 -9 28 -37 15 -27 42 -72 61 -98z m161
86 c23 -54 144 -213 162 -213 4 0 8 -5 8 -12 0 -6 -9 -3 -20 7 -19 18 -20 17
-20 -3 0 -12 -2 -22 -4 -22 -2 0 -13 -3 -23 -6 -17 -5 -17 -5 0 6 22 14 22 33
-3 55 -11 10 -17 21 -15 26 3 4 0 11 -6 15 -8 4 -9 3 -5 -4 11 -18 0 -14 -15
5 -12 14 -12 16 0 9 9 -6 12 -5 9 5 -3 8 -10 13 -16 12 -5 -1 -16 5 -24 14
-11 14 -11 16 1 9 9 -6 12 -5 9 5 -3 8 -11 13 -17 11 -7 -1 -10 2 -6 8 9 14
-14 52 -27 44 -7 -4 -8 -3 -4 4 4 6 0 27 -8 47 -8 19 -12 35 -8 35 4 0 18 -26
32 -57z m-524 -25 c8 -16 13 -28 10 -28 -5 0 -46 69 -46 78 0 8 15 -13 36 -50z
m93 22 c11 -24 11 -24 -3 -6 -9 11 -16 24 -16 30 0 12 5 7 19 -24z m105 4 c3
-8 2 -12 -4 -9 -6 3 -10 10 -10 16 0 14 7 11 14 -7z m300 0 c3 -8 2 -12 -4 -9
-6 3 -10 10 -10 16 0 14 7 11 14 -7z m520 -9 c-7 -17 -43 -40 -51 -32 -2 3 4
8 15 11 11 4 23 13 26 21 3 8 8 15 10 15 3 0 3 -7 0 -15z m-1074 -88 c25 -33
49 -68 55 -78 12 -23 24 -24 31 -4 4 8 10 12 15 9 5 -3 9 1 9 8 0 8 5 6 11 -5
7 -12 18 -16 37 -12 33 6 -122 -49 -163 -58 l-30 -7 25 15 c14 8 21 14 16 15
-6 0 -1 6 9 14 11 8 23 12 27 10 20 -13 3 18 -52 91 -33 44 -60 85 -59 90 0 6
6 2 12 -9 7 -10 32 -46 57 -79z m1003 42 c-6 -6 -9 -19 -6 -28 4 -12 3 -13 -6
-5 -13 12 -5 44 12 44 8 0 8 -3 0 -11z m-1254 -71 c24 -32 48 -58 53 -58 5 0
6 6 2 13 -5 6 16 -8 44 -32 46 -38 53 -48 50 -75 -3 -26 -7 -31 -29 -31 -25
-1 -26 0 -13 21 13 18 12 23 -1 34 -9 7 -14 19 -11 26 3 7 -3 18 -11 26 -15
11 -16 11 -9 -7 6 -17 3 -16 -20 5 -31 30 -114 135 -114 146 0 10 4 5 59 -68z
m134 -25 c22 -23 45 -39 50 -36 6 3 7 1 3 -5 -3 -6 -2 -13 4 -17 13 -8 13 -45
-1 -45 -5 0 -7 5 -4 11 4 5 -13 31 -37 57 -51 55 -98 116 -98 127 0 4 10 -5
22 -21 12 -16 39 -48 61 -71z m497 15 c0 -18 -45 -37 -57 -24 -4 3 4 6 16 6
31 0 37 27 12 60 -11 16 -21 32 -21 37 0 4 11 -8 25 -27 14 -19 25 -42 25 -52z
m90 51 c15 -28 5 -23 -15 7 -9 15 -12 23 -6 20 6 -4 16 -16 21 -27z m133 -35
c26 -36 47 -71 47 -79 0 -7 -17 -22 -37 -32 -52 -26 -61 -44 -40 -87 9 -20 20
-36 25 -36 5 0 15 21 23 47 8 26 20 49 27 51 10 3 9 -3 -3 -22 -14 -20 -15
-30 -6 -39 6 -6 11 -19 11 -28 0 -9 17 -31 38 -47 20 -17 34 -33 31 -36 -3 -3
-23 10 -43 29 -43 39 -56 44 -49 16 6 -25 -20 -34 -44 -14 -16 13 -16 14 0 9
25 -8 21 2 -18 45 -20 23 -35 50 -35 64 0 14 3 24 8 23 12 -5 62 39 54 47 -4
4 3 4 15 1 37 -12 34 10 -7 55 -21 24 -37 45 -35 48 3 2 -2 15 -10 28 -33 50
3 18 48 -43z m-649 1 l37 -50 -41 45 c-22 25 -40 49 -40 54 0 12 0 11 44 -49z
m156 9 c18 -25 30 -47 28 -49 -1 -2 -18 19 -36 46 -41 62 -34 65 8 3z m940 42
c0 -2 -7 -7 -16 -10 -8 -3 -12 -2 -9 4 6 10 25 14 25 6z m-1009 -23 c13 -16
12 -17 -3 -4 -17 13 -22 21 -14 21 2 0 10 -8 17 -17z m-654 -45 c-3 -7 -5 -2
-5 12 0 14 2 19 5 13 2 -7 2 -19 0 -25z m688 2 c10 -11 16 -20 13 -20 -3 0
-13 9 -23 20 -10 11 -16 20 -13 20 3 0 13 -9 23 -20z m430 -29 c-3 -6 -14 -10
-23 -10 -15 1 -15 2 1 6 9 2 17 9 17 15 0 6 3 9 6 5 3 -3 3 -10 -1 -16z
m-1130 -20 c-3 -12 -11 -21 -16 -21 -6 0 -8 3 -6 8 2 4 7 16 11 26 9 25 20 13
11 -13z m363 -104 c34 -27 62 -50 62 -52 0 -2 -3 -10 -6 -19 -9 -22 -23 -20
-17 2 3 13 -5 25 -24 37 -40 27 -173 148 -173 159 0 5 21 -11 48 -35 26 -25
75 -66 110 -92z m292 112 c0 -6 -4 -7 -10 -4 -5 3 -10 11 -10 16 0 6 5 7 10 4
6 -3 10 -11 10 -16z m-285 -38 c-3 -3 -18 8 -33 23 l-27 29 32 -23 c18 -13 30
-26 28 -29z m684 16 c-46 -31 -53 -82 -14 -97 30 -11 29 -35 -1 -35 -15 0 -21
11 -28 49 -10 47 -9 50 22 77 18 16 37 29 44 29 6 0 -4 -10 -23 -23z m-633
-58 c3 -6 -5 -3 -20 6 -14 10 -26 19 -26 22 0 7 39 -17 46 -28z m-469 -45
c-19 -18 -37 -44 -41 -58 -4 -17 -13 -26 -26 -26 -27 0 -26 36 0 52 11 7 20
20 20 28 0 25 20 39 52 37 l29 -2 -34 -31z m345 -19 c70 -45 78 -53 78 -82 0
-27 -5 -34 -26 -39 -14 -4 -29 -2 -33 3 -3 6 -28 22 -56 36 -63 33 -54 34 17
3 51 -23 54 -23 55 -5 1 10 -3 19 -9 19 -6 0 -9 3 -6 6 4 3 16 0 28 -6 18 -9
21 -9 18 1 -2 7 -33 30 -69 51 -35 22 -71 46 -79 55 -22 23 -4 13 82 -42z
m562 39 c3 -8 2 -12 -4 -9 -6 3 -10 10 -10 16 0 14 7 11 14 -7z m452 -40 c-9
-28 -12 -31 -14 -14 -3 17 12 50 23 50 1 0 -3 -16 -9 -36z m-1091 -24 c3 -5
-10 -1 -29 11 -20 12 -36 23 -36 25 0 7 58 -25 65 -36z m362 -17 c-3 -10 -5
-4 -5 12 0 17 2 24 5 18 2 -7 2 -21 0 -30z m-311 -9 c18 -14 18 -14 -6 -3 -31
14 -36 19 -24 19 6 0 19 -7 30 -16z m-81 -39 c44 -19 73 -35 65 -34 -15 0
-160 66 -150 68 3 1 41 -15 85 -34z m1238 -53 c12 -13 34 -30 50 -38 32 -17
38 -55 7 -47 -11 3 -20 8 -20 12 0 3 -20 33 -45 66 -25 33 -45 69 -45 80 1 14
6 9 16 -15 8 -19 25 -45 37 -58z m-1580 -6 c-3 -38 -21 -60 -39 -45 -11 9 -14
6 -15 -17 -2 -25 -2 -26 -6 -6 -3 13 3 34 11 47 9 13 16 32 16 40 0 10 7 15
18 13 12 -3 16 -12 15 -32z m477 -1 c0 -22 -44 -83 -63 -88 -11 -3 -15 -11
-11 -22 4 -10 -2 -24 -15 -36 -14 -13 -20 -27 -16 -39 3 -10 2 -21 -3 -24 -5
-3 -15 -30 -22 -61 -11 -47 -11 -58 0 -65 9 -6 8 -9 -7 -14 -17 -6 -19 -18
-22 -127 -2 -88 1 -119 9 -114 6 4 15 17 20 29 7 16 9 17 9 4 1 -9 -13 -32
-29 -50 -19 -20 -28 -39 -24 -48 16 -38 12 -48 -35 -97 -28 -28 -51 -56 -51
-61 0 -25 27 -31 95 -21 78 11 97 22 66 38 -12 7 -21 16 -21 22 0 6 7 3 16 -5
18 -19 28 -20 55 -6 17 10 19 23 19 165 0 100 4 156 11 161 6 4 8 20 5 39 -7
34 10 122 25 140 15 16 10 33 -16 59 -26 26 -33 68 -16 95 7 10 8 2 5 -25 -6
-46 8 -70 50 -80 27 -7 28 -6 21 25 -5 23 -3 32 9 37 9 3 16 15 16 25 0 22 27
36 41 22 13 -13 1 -43 -18 -43 -8 0 -12 -4 -8 -10 3 -5 -5 -31 -19 -57 -13
-26 -30 -73 -36 -103 -7 -30 -15 -62 -17 -70 -3 -8 -4 -89 -3 -180 2 -238 -16
-300 -98 -337 -30 -13 -78 -18 -242 -21 -113 -2 -201 0 -197 4 5 5 42 9 83 10
216 5 331 21 354 49 15 18 15 18 -50 4 -39 -8 -58 -8 -81 1 -24 10 -35 10 -53
1 -13 -7 -37 -11 -53 -8 -35 6 -77 26 -54 27 7 0 11 6 8 13 -4 10 3 12 24 9
26 -4 29 -2 29 24 0 35 42 74 80 74 33 0 43 9 28 27 -8 10 -8 19 2 37 9 18 9
29 1 44 -6 11 -11 33 -11 48 0 24 -2 25 -17 13 -17 -13 -17 -13 0 7 9 11 17
33 17 48 0 23 -3 26 -22 21 -19 -5 -18 -3 5 10 35 20 39 60 5 49 -39 -11 -141
-65 -176 -91 -18 -14 -36 -23 -38 -20 -9 8 83 67 161 103 69 32 100 66 71 78
-6 2 -3 5 7 5 10 1 17 7 14 14 -2 6 -13 10 -23 9 -15 -3 -14 0 6 17 l25 20
-35 2 -35 2 35 6 c29 5 36 11 38 34 l3 27 -82 0 c-45 0 -79 3 -75 8 11 10 155
19 159 9 1 -5 12 5 25 22 27 37 27 37 -123 47 -137 9 -103 24 43 19 82 -2 102
0 120 15 12 10 22 26 22 35 0 9 9 30 21 46 11 16 18 33 15 37 -3 5 6 7 19 4
14 -2 25 -10 25 -17z m1242 -27 c-22 -22 -13 -108 12 -108 11 0 81 -178 73
-187 -3 -2 -8 6 -12 19 -4 13 -16 35 -26 50 -11 14 -19 33 -19 40 0 8 -11 20
-24 26 -22 10 -43 52 -26 52 4 0 5 20 2 45 -4 41 8 75 26 75 3 0 1 -5 -6 -12z
m185 6 c-3 -3 -12 -4 -19 -1 -8 3 -5 6 6 6 11 1 17 -2 13 -5z m46 -11 c-7 -2
-19 -2 -25 0 -7 3 -2 5 12 5 14 0 19 -2 13 -5z m94 1 c-3 -3 -12 -4 -19 -1 -8
3 -5 6 6 6 11 1 17 -2 13 -5z m-2087 -86 c0 -13 -9 -36 -20 -53 -14 -21 -16
-33 -9 -42 8 -9 6 -21 -4 -43 -11 -21 -13 -39 -7 -59 5 -19 4 -33 -3 -40 -6
-6 -12 -37 -13 -69 -1 -31 -5 -77 -9 -101 -6 -32 -5 -45 6 -52 11 -6 11 -13 3
-26 -17 -28 -33 -26 -40 4 -3 15 -13 34 -22 41 -9 6 -12 12 -7 12 5 0 16 -7
26 -15 15 -15 17 -12 15 39 0 29 -3 50 -6 46 -3 -4 -13 3 -23 16 -13 17 -14
22 -4 18 10 -4 17 5 21 31 4 19 11 33 16 30 16 -10 20 12 5 25 -19 16 -19 44
0 64 10 9 12 17 5 21 -13 8 -4 43 17 67 8 9 12 25 9 36 -4 11 -2 31 3 46 13
32 41 35 41 4z m123 -5 c-7 -2 -21 -2 -30 0 -10 3 -4 5 12 5 17 0 24 -2 18 -5z
m1592 -11 c-3 -3 -11 0 -18 7 -9 10 -8 11 6 5 10 -3 15 -9 12 -12z m-1567 -89
c-10 -2 -28 -2 -40 0 -13 2 -5 4 17 4 22 1 32 -1 23 -4z m115 -80 c-7 -2 -19
-2 -25 0 -7 3 -2 5 12 5 14 0 19 -2 13 -5z m-60 -10 c-7 -2 -19 -2 -25 0 -7 3
-2 5 12 5 14 0 19 -2 13 -5z m-50 -10 c-7 -2 -21 -2 -30 0 -10 3 -4 5 12 5 17
0 24 -2 18 -5z m2030 0 c-7 -2 -19 -2 -25 0 -7 3 -2 5 12 5 14 0 19 -2 13 -5z
m-2282 -30 c13 -16 12 -17 -3 -4 -10 7 -18 15 -18 17 0 8 8 3 21 -13z m1985
-19 c-3 -12 -2 -25 3 -28 5 -4 8 -23 6 -44 -1 -20 0 -41 3 -47 10 -15 13 -86
7 -124 -6 -31 -7 -32 -20 -14 -7 11 -15 48 -16 84 -2 39 -9 72 -18 84 -16 20
-16 20 7 1 18 -16 22 -16 22 -4 0 9 -7 21 -15 28 -9 7 -13 20 -10 28 3 8 0 21
-6 28 -17 21 -4 43 21 37 17 -4 20 -11 16 -29z m-59 -70 c-3 -3 -12 -4 -19 -1
-8 3 -5 6 6 6 11 1 17 -2 13 -5z m-1572 -64 c-7 -11 -65 -43 -65 -36 0 4 62
45 68 46 2 0 0 -5 -3 -10z m15 -73 c0 -2 -10 -12 -22 -23 l-23 -19 19 23 c18
21 26 27 26 19z m1608 -87 c45 -32 49 -41 28 -59 -17 -14 -32 2 -38 39 -2 20
-9 26 -37 28 -25 3 -31 6 -20 13 20 13 22 12 67 -21z m-1951 9 c41 -3 41 -3
26 -26 -14 -21 -14 -27 0 -61 9 -20 18 -46 22 -58 5 -19 42 -44 65 -44 5 0 7
13 4 28 -4 20 -1 32 13 42 15 12 16 12 6 0 -25 -27 -15 -49 29 -67 40 -16 41
-17 17 -24 -32 -8 -135 1 -119 11 7 4 -2 13 -24 24 -19 9 -37 25 -41 35 -3 11
-18 24 -33 30 -23 8 -24 10 -6 10 41 2 37 64 -5 99 -9 8 -11 11 -5 8 6 -3 29
-6 51 -7z m1926 -96 c-7 -2 -19 -2 -25 0 -7 3 -2 5 12 5 14 0 19 -2 13 -5z
m47 -34 c15 -28 5 -23 -15 7 -9 15 -12 23 -6 20 6 -4 16 -16 21 -27z m110 -57
l25 -14 -24 6 c-13 2 -31 0 -41 -7 -14 -8 -22 -8 -34 2 -24 20 -19 41 9 41 17
0 25 6 26 18 1 11 4 8 8 -8 4 -14 18 -31 31 -38z m120 -2 c13 -8 13 -11 -2
-26 -20 -21 -48 -12 -48 16 0 22 24 27 50 10z m-2173 -86 c-3 -3 -12 -4 -19
-1 -8 3 -5 6 6 6 11 1 17 -2 13 -5z m1763 -64 c0 -5 -5 -10 -11 -10 -5 0 -7 5
-4 10 3 6 8 10 11 10 2 0 4 -4 4 -10z m-1658 -7 c-26 -5 -20 -23 9 -23 10 0
19 7 19 15 0 9 9 15 23 14 19 -1 20 -2 3 -6 -19 -5 -19 -6 3 -18 21 -11 17
-12 -35 -14 -32 -1 -61 -6 -64 -11 -6 -9 -16 -10 -87 -10 -29 1 -44 -4 -51
-16 -11 -20 -42 -12 -42 10 0 11 10 15 33 14 18 -1 44 5 57 13 24 13 30 15 58
18 7 0 10 6 7 11 -4 6 12 9 42 9 26 -1 38 -4 25 -6z m350 0 c-9 -4 -10 -8 -2
-18 9 -10 7 -13 -7 -11 -10 2 -17 6 -15 9 1 4 2 12 2 17 0 6 8 10 18 9 11 0
12 -2 4 -6z m111 -12 c22 -22 -54 -72 -105 -70 -14 1 -8 5 17 10 50 12 69 29
33 29 -31 0 -41 11 -32 35 6 13 15 16 42 11 19 -3 40 -10 45 -15z m112 -3 c-1
-15 -9 -24 -23 -26 -18 -3 -22 2 -22 22 0 21 5 26 23 26 18 0 23 -5 22 -22z
m79 13 c3 -5 15 -7 26 -4 13 3 22 -1 26 -12 8 -21 -10 -40 -28 -29 -7 5 -23 7
-35 5 -24 -3 -28 5 -17 33 7 18 20 21 28 7z m432 -8 c-4 -28 -131 -41 -131
-13 0 15 39 26 102 29 24 1 31 -3 29 -16z m701 11 c-3 -3 -12 -4 -19 -1 -8 3
-5 6 6 6 11 1 17 -2 13 -5z m88 -3 c-8 -13 27 -19 46 -7 9 5 25 6 35 1 11 -5
23 -7 27 -6 5 1 6 -3 2 -9 -3 -6 -11 -8 -16 -5 -5 4 -9 1 -9 -4 0 -6 -10 -11
-23 -11 -13 0 -29 -6 -37 -12 -12 -11 -12 -10 -1 5 12 15 10 17 -16 17 -17 0
-37 -8 -47 -19 -16 -17 -14 -18 45 -19 72 -1 109 11 116 38 6 22 23 28 73 26
42 -1 51 -31 10 -31 -14 0 -41 -11 -60 -23 -29 -18 -50 -22 -118 -22 l-82 0
15 -24 c13 -19 14 -29 5 -45 -10 -20 -8 -21 42 -23 29 0 65 0 80 1 15 1 36 -2
46 -8 13 -7 22 -7 29 0 8 8 43 7 114 0 114 -11 222 -47 227 -76 2 -9 9 -14 15
-12 7 2 24 -4 39 -15 16 -11 33 -16 39 -13 6 4 10 1 9 -6 -3 -24 12 -59 25
-59 14 0 28 -27 20 -40 -6 -9 40 -60 55 -60 5 0 11 15 11 33 2 29 2 30 6 5 2
-15 -1 -37 -7 -48 -8 -15 -8 -25 -1 -34 10 -12 18 -50 27 -127 3 -26 -1 -39
-11 -43 -18 -7 -28 9 -32 54 -2 19 -12 60 -21 90 -9 30 -17 62 -18 70 0 8 -2
21 -3 28 0 7 -12 17 -26 22 -14 5 -25 16 -25 23 0 12 -29 38 -67 61 -16 9 9
-62 42 -123 14 -24 24 -46 22 -48 -6 -6 -57 95 -76 149 -15 44 -24 56 -56 71
-31 15 -39 16 -46 5 -7 -10 -9 -9 -9 5 0 9 -5 17 -11 17 -11 0 -8 -15 22 -94
10 -28 17 -51 15 -54 -2 -2 -12 18 -22 45 -9 26 -21 52 -26 58 -4 5 -8 19 -8
31 0 13 -7 25 -17 27 -79 22 -88 18 -73 -32 8 -28 7 -31 -5 -21 -8 6 -15 24
-17 38 -4 37 -48 45 -48 10 0 -65 65 -217 134 -312 19 -27 33 -53 30 -58 -7
-10 117 -134 177 -178 23 -16 38 -30 32 -30 -33 0 -208 170 -265 258 -23 34
-45 62 -50 62 -12 0 -64 112 -79 171 -7 27 -16 49 -20 49 -3 0 -5 12 -2 28 3
23 2 24 -6 7 -9 -18 -10 -17 -10 8 -1 18 -6 27 -13 24 -29 -9 12 -161 73 -275
39 -74 109 -171 148 -206 11 -10 18 -22 16 -27 -3 -4 19 -27 49 -50 31 -24 53
-45 51 -48 -8 -8 -118 94 -177 164 -95 112 -169 264 -186 378 -6 47 -10 52
-35 55 -20 3 -27 -1 -28 -15 0 -16 -1 -16 -9 2 -11 25 -13 2 -4 -43 6 -27 8
-29 25 -19 11 7 19 21 20 32 1 11 5 5 10 -15 5 -19 6 -46 3 -59 -5 -22 -6 -23
-19 -5 -23 33 -26 9 -5 -51 28 -82 84 -177 146 -251 30 -35 54 -67 54 -71 0
-4 25 -32 57 -62 32 -29 44 -44 27 -32 -40 26 -175 170 -215 227 -61 90 -101
188 -133 337 -8 33 -25 36 -27 5 l-2 -23 -4 23 c-2 12 -9 22 -15 22 -12 0 -7
-144 5 -157 14 -14 26 21 22 62 -5 39 -4 39 4 6 5 -18 13 -43 18 -55 11 -25
42 -112 50 -141 3 -14 -2 -10 -16 10 -11 16 -23 42 -27 57 -3 16 -14 33 -25
38 -10 6 -19 9 -19 6 0 -2 -3 -13 -6 -23 -5 -15 -4 -16 6 -3 9 12 10 11 5 -9
-4 -13 -3 -21 2 -18 5 3 21 -20 36 -51 15 -31 51 -88 80 -126 71 -94 86 -118
47 -76 -18 19 -52 57 -76 83 -53 57 -86 119 -78 144 5 15 4 16 -5 3 -9 -13
-11 -13 -11 0 -1 12 -3 11 -11 -3 -5 -9 -7 -22 -3 -28 3 -6 -5 -4 -19 5 -30
20 -27 57 4 49 23 -6 23 -9 0 53 -11 28 -23 75 -27 103 -7 51 -17 64 -28 35
-7 -19 -24 -10 -36 20 -6 14 -8 -2 -6 -49 8 -142 100 -317 246 -465 38 -38 66
-70 61 -70 -11 0 -154 149 -176 183 -15 23 -23 27 -46 22 -32 -7 -50 15 -31
38 8 10 1 36 -26 100 -20 48 -38 83 -40 78 -2 -5 13 -44 32 -87 20 -42 34 -79
31 -82 -8 -8 -66 129 -83 198 -9 36 -23 71 -31 79 -11 13 -10 17 8 32 26 21
26 28 4 45 -27 20 -4 35 58 39 80 4 107 22 93 59 -9 23 -33 28 -154 34 -114 4
-115 4 -97 -15 9 -11 17 -26 16 -34 0 -8 -4 -4 -9 8 -6 14 -24 26 -50 34 -42
13 -62 7 -42 -13 17 -17 15 -43 -5 -59 -15 -13 -15 -12 -2 9 20 31 3 54 -52
68 -38 11 -20 12 142 13 174 1 249 10 249 31 0 5 -4 11 -10 15 -18 11 2 35 32
35 16 0 27 -4 23 -9z m-1610 -20 c0 -21 -51 -33 -65 -15 -7 7 -9 18 -5 24 10
16 70 8 70 -9z m635 4 c14 -17 7 -21 -47 -27 -32 -4 -50 12 -37 33 9 15 70 10
84 -6z m349 6 c7 -5 10 -14 7 -20 -10 -16 -56 -14 -56 2 0 26 23 35 49 18z
m66 -1 c3 -5 18 -10 33 -11 19 -1 13 -4 -18 -10 -45 -9 -68 0 -56 20 9 14 33
14 41 1z m133 -13 c2 -11 -3 -17 -17 -17 -23 0 -35 15 -26 31 10 15 39 6 43
-14z m812 2 c0 -9 72 -31 110 -33 32 -1 42 -36 10 -36 -11 0 -23 6 -26 14 -9
24 -56 30 -72 9 -13 -17 -14 -17 -7 4 6 21 4 22 -27 16 -18 -3 -42 -12 -53
-20 -30 -20 -40 -16 -14 7 l24 20 -24 6 -23 7 28 12 c30 12 74 9 74 -6z
m-2165 -29 c-3 -5 -12 -10 -18 -10 -7 0 -6 4 3 10 19 12 23 12 15 0z m710 -10
c-3 -5 -16 -10 -28 -9 -21 0 -21 1 -2 9 28 12 37 12 30 0z m-1048 -16 c8 -20
-8 -36 -26 -25 -15 10 -8 41 9 41 6 0 13 -7 17 -16z m988 1 c6 -2 -11 -4 -37
-4 -27 -1 -48 3 -48 7 0 7 62 5 85 -3z m-134 -17 c23 -29 24 -52 2 -69 -15
-11 -16 -11 -5 1 16 19 15 45 -3 60 -8 7 -47 15 -87 20 l-73 7 73 2 c65 1 76
-2 93 -21z m302 15 c-7 -2 -19 -2 -25 0 -7 3 -2 5 12 5 14 0 19 -2 13 -5z
m112 -13 c17 -19 17 -19 -13 -8 -17 7 -29 16 -26 20 8 13 20 9 39 -12z m102
14 c-3 -3 -12 -4 -19 -1 -8 3 -5 6 6 6 11 1 17 -2 13 -5z m262 -16 c13 -21 13
-22 -3 -9 -24 20 -187 29 -168 10 6 -7 12 -18 12 -23 0 -6 -5 -3 -11 7 -5 9
-20 17 -32 18 -21 0 -21 1 -2 9 11 5 58 9 105 9 78 1 86 -1 99 -21z m1104 -10
c21 -25 21 -38 2 -64 -10 -12 -13 -14 -10 -3 4 10 -3 20 -21 28 -19 8 -25 17
-21 31 3 11 1 20 -4 20 -5 0 -9 5 -9 11 0 16 42 0 63 -23z m-1384 -27 c-2 -6
-10 2 -17 17 -11 25 -11 25 4 10 9 -9 15 -21 13 -27z m-16 -38 c-6 -14 0 -15
43 -10 27 3 58 9 68 13 14 6 17 4 11 -6 -5 -8 -3 -11 6 -8 8 3 22 1 32 -4 10
-5 26 -6 35 -3 9 4 31 8 49 10 18 1 39 8 48 15 13 11 15 10 10 -1 -5 -12 8
-15 73 -13 43 1 88 7 100 13 19 10 21 9 15 -5 -5 -14 -2 -16 19 -11 17 5 30 2
38 -8 20 -24 2 -35 -56 -35 -47 0 -54 -2 -54 -20 0 -11 -5 -20 -11 -20 -6 0
-8 9 -4 20 6 19 2 20 -57 20 -48 -1 -59 -3 -45 -11 20 -12 22 -32 4 -47 -14
-12 -11 -78 4 -88 5 -3 9 -17 9 -32 l-1 -27 -13 25 c-8 14 -19 60 -26 103 -10
62 -16 77 -29 75 -13 -3 -16 -16 -14 -64 0 -33 6 -79 12 -102 11 -39 14 -42
46 -42 19 0 35 -4 35 -10 0 -5 -4 -10 -10 -10 -34 0 32 -141 120 -258 74 -97
170 -183 295 -263 50 -32 96 -64 104 -71 8 -7 28 -21 45 -30 17 -9 27 -17 22
-18 -14 0 -165 78 -182 94 -10 10 -25 13 -44 9 -27 -5 -30 -3 -30 20 0 18 -10
33 -32 48 -18 13 -67 55 -108 94 -70 67 -110 95 -110 77 0 -4 9 -25 20 -47 11
-22 20 -47 20 -55 0 -9 3 -20 7 -24 4 -4 6 -22 5 -40 -3 -30 1 -36 45 -63 113
-71 151 -87 179 -74 18 8 30 8 42 1 14 -9 13 -10 -5 -5 -18 5 -22 3 -17 -10 9
-23 91 -58 310 -130 105 -35 227 -81 272 -104 75 -38 107 -61 83 -61 -5 0 -13
5 -16 10 -14 23 -137 75 -329 139 -110 38 -226 78 -256 90 -30 11 -60 21 -67
21 -6 0 -27 9 -45 21 -40 25 -188 108 -189 106 -9 -18 -2 -50 13 -58 11 -6 17
-13 14 -16 -3 -3 -12 0 -21 7 -13 10 -15 9 -15 -9 0 -11 4 -21 10 -21 5 0 24
-9 42 -21 30 -19 25 -20 -19 -2 -28 11 -5 -15 28 -32 31 -17 62 -10 38 7 -10
7 -8 8 6 3 11 -5 39 -13 62 -19 45 -12 80 -36 53 -36 -38 0 19 -23 160 -64
154 -46 335 -114 325 -124 -2 -3 -32 7 -66 22 -33 15 -62 26 -65 23 -2 -2 14
-12 36 -22 26 -12 36 -21 29 -26 -8 -4 -1 -13 19 -23 42 -22 52 -20 22 5 -30
24 3 10 35 -15 l20 -16 -20 6 c-20 6 -20 5 -1 -10 24 -19 40 -21 30 -3 -5 6 8
0 27 -14 18 -15 34 -31 34 -37 0 -6 26 -31 59 -56 32 -25 55 -46 52 -46 -4 0
-48 32 -99 71 -151 115 -422 235 -576 255 -54 6 -87 24 -73 39 4 4 -4 4 -17 0
-15 -4 -21 -3 -17 3 6 10 -23 26 -32 17 -3 -3 1 -5 8 -5 7 0 11 -2 8 -5 -9 -9
-38 7 -32 17 4 6 -2 8 -17 4 l-24 -7 25 15 25 14 -25 0 c-14 -1 -42 6 -62 16
-47 20 -50 13 -4 -11 29 -16 32 -21 25 -42 -7 -17 -14 -21 -27 -16 -26 11 -37
11 -40 0 -3 -8 29 -22 116 -49 17 -6 22 -3 22 9 0 11 7 15 23 13 14 -2 22 -10
22 -22 0 -29 52 -44 69 -21 12 17 14 17 36 -5 12 -12 57 -35 100 -50 87 -31
261 -120 255 -131 -3 -4 -53 17 -112 46 -60 30 -148 67 -198 84 -169 56 -325
99 -325 90 0 -5 33 -18 73 -29 275 -81 425 -143 580 -243 48 -31 87 -59 87
-62 0 -7 -9 -2 -80 45 -67 45 -210 124 -210 116 0 -3 13 -12 30 -21 16 -8 34
-23 39 -33 8 -14 -3 -12 -53 13 -35 16 -61 33 -59 37 2 4 -4 5 -13 1 -11 -4
-15 -2 -11 4 8 13 -20 26 -35 16 -6 -3 -8 -1 -5 4 7 11 -22 28 -31 18 -3 -3 1
-5 8 -5 7 0 11 -2 8 -5 -9 -10 -38 7 -31 18 4 6 -2 8 -15 5 -12 -4 -20 -2 -17
2 7 11 -31 23 -45 15 -20 -13 -9 -24 45 -44 78 -29 155 -70 155 -81 0 -8 -91
33 -182 81 -13 6 -18 5 -17 -3 0 -7 40 -32 89 -56 49 -23 149 -82 222 -131 73
-48 176 -115 228 -149 52 -34 92 -62 87 -62 -8 0 -185 111 -376 236 -63 41
-126 77 -140 80 -39 9 -188 74 -171 74 11 0 11 3 -3 11 -10 6 -21 8 -24 5 -4
-3 0 -6 8 -6 11 0 11 -2 1 -9 -10 -6 -4 -12 20 -21 60 -24 227 -108 289 -145
39 -24 57 -41 51 -47 -12 -12 -55 9 -47 22 4 6 -1 7 -11 3 -10 -4 -15 -2 -11
3 3 5 -2 10 -11 10 -9 1 -25 4 -34 8 -12 6 -16 3 -14 -10 2 -10 9 -20 16 -22
8 -3 10 0 5 9 -5 7 7 3 26 -8 19 -11 88 -53 154 -92 66 -38 127 -75 135 -81
29 -20 -68 30 -126 64 -32 19 -61 33 -66 30 -4 -3 -8 0 -8 6 0 6 -5 8 -12 4
-7 -4 -8 -3 -4 4 7 11 -6 17 -27 13 -5 -1 -5 4 -1 10 5 9 2 10 -10 6 -11 -4
-15 -3 -11 4 4 6 -1 9 -11 7 -12 -2 -18 2 -16 11 2 9 -3 11 -13 7 -20 -7 -67
22 -58 37 4 7 0 8 -13 3 -10 -4 -15 -4 -11 0 4 4 -1 13 -11 20 -22 17 -29 17
-29 0 0 -8 6 -12 14 -9 7 3 13 -2 13 -11 0 -15 -3 -15 -29 -2 -20 11 -28 22
-27 38 1 20 -4 23 -34 24 -19 0 -43 -3 -52 -8 -11 -5 -46 6 -114 39 -65 32
-111 47 -140 48 -24 1 -44 -1 -43 -4 0 -3 6 -21 12 -39 10 -27 30 -42 129 -96
108 -58 117 -61 120 -42 2 13 10 21 22 21 43 0 24 26 -43 60 -50 25 -71 31
-71 21 0 -21 -23 -36 -40 -26 -18 11 -22 40 -4 40 27 0 13 15 -32 34 -25 10
-43 20 -41 22 5 5 173 -69 245 -108 64 -34 81 -37 27 -3 -22 13 -36 25 -32 25
9 0 317 -180 317 -186 0 -5 -119 50 -168 78 -23 14 -39 28 -35 32 5 4 -1 6
-12 4 -12 -2 -19 2 -18 10 4 19 -15 14 -27 -8 -6 -11 -18 -20 -26 -20 -9 0
-22 -7 -30 -15 -18 -17 -19 -16 146 -104 129 -68 138 -78 24 -26 -87 40 -91
41 -74 19 8 -8 9 -14 4 -13 -30 5 -36 -4 -11 -17 15 -8 25 -20 21 -26 -4 -6 1
-8 12 -5 11 4 30 0 44 -8 15 -9 19 -14 10 -15 -8 0 63 -38 158 -85 171 -83
342 -186 342 -204 0 -5 25 -29 55 -53 30 -23 55 -47 55 -52 0 -4 -19 9 -42 29
-22 21 -88 68 -144 105 -57 37 -100 71 -96 75 4 5 2 5 -5 1 -15 -8 -124 45
-116 57 3 6 1 7 -5 3 -14 -9 -103 35 -95 47 3 6 1 7 -6 3 -7 -4 -59 13 -117
38 -57 25 -113 46 -124 46 -10 0 -23 6 -27 14 -11 20 -232 126 -248 120 -7 -3
-16 -12 -19 -20 -3 -8 -2 -12 3 -9 14 8 81 -27 74 -38 -3 -6 -1 -7 5 -4 15 10
43 -3 35 -16 -3 -5 -1 -7 5 -3 14 8 65 -11 58 -23 -3 -5 8 -14 24 -21 16 -7
27 -17 23 -23 -4 -6 0 -8 11 -4 11 4 15 3 10 -4 -4 -8 1 -9 17 -4 20 5 21 4 9
-5 -12 -10 -11 -11 8 -7 12 3 20 1 16 -4 -8 -14 -19 -11 -76 16 -28 14 -59 25
-67 24 -28 -1 92 -51 129 -54 19 -2 38 -3 43 -4 4 -1 7 -8 7 -16 0 -8 1 -15 3
-15 2 0 46 -18 98 -40 52 -22 85 -33 75 -25 -11 8 -24 15 -30 15 -5 0 -7 3 -3
6 9 10 261 -121 361 -188 50 -33 118 -88 151 -121 l60 -60 -65 55 c-78 67
-245 172 -259 163 -6 -3 -50 14 -99 39 -48 24 -146 69 -218 99 -71 30 -155 67
-187 81 -57 26 -58 26 -55 6 2 -17 28 -32 114 -69 62 -26 118 -52 125 -58 8
-6 57 -29 109 -52 52 -23 97 -46 100 -51 3 -6 43 -29 88 -53 92 -48 237 -146
228 -154 -2 -3 -24 10 -48 29 -109 88 -337 200 -599 294 -58 21 -73 23 -80 12
-5 -7 -9 -9 -9 -4 0 6 -6 1 -14 -10 -11 -14 -11 -21 -3 -27 7 -5 4 -6 -8 -1
-11 4 -45 13 -75 19 -30 7 -72 20 -92 29 -34 14 -38 14 -38 1 0 -8 5 -15 11
-15 5 0 8 -4 5 -9 -3 -5 15 -16 41 -25 54 -19 64 -20 43 -5 -12 9 -12 10 3 5
10 -3 24 -6 30 -6 7 0 6 -4 -3 -10 -10 -6 -5 -9 19 -8 22 1 37 -5 43 -15 5
-10 14 -17 21 -17 7 0 6 4 -3 10 -20 13 -10 12 28 -1 18 -6 29 -15 26 -21 -4
-6 2 -8 16 -3 14 5 20 3 16 -3 -4 -6 2 -8 16 -4 13 3 19 1 15 -5 -4 -6 52 -34
136 -68 151 -61 292 -134 290 -150 -1 -5 4 -17 10 -25 10 -13 10 -13 -5 -2
-10 8 -16 19 -15 24 1 6 -4 13 -12 16 -9 3 -11 0 -6 -8 4 -7 -15 0 -43 16 -28
15 -48 32 -45 37 3 5 0 8 -8 5 -7 -2 -54 14 -104 37 -141 66 -274 117 -296
113 -13 -2 24 -22 96 -52 64 -26 114 -50 111 -53 -2 -2 -14 1 -27 7 -46 25
-283 109 -291 104 -5 -3 -36 4 -68 16 -65 24 -105 22 -50 -3 19 -9 95 -37 169
-62 74 -26 161 -62 195 -81 73 -41 70 -43 -10 -8 -93 42 -403 143 -409 134 -3
-5 1 -11 7 -13 10 -4 10 -6 0 -6 -23 -2 -33 45 -16 79 9 18 15 56 15 92 0 34
5 68 11 75 7 9 7 17 -1 26 -6 8 -8 17 -4 20 3 4 5 106 4 227 -1 121 2 220 6
220 13 0 30 68 22 82 -6 10 -9 8 -9 -5 0 -11 -8 -21 -19 -24 -24 -6 -44 -69
-30 -95 6 -11 7 -24 2 -31 -14 -19 -15 -187 -2 -204 9 -10 9 -17 1 -25 -14
-14 -16 -74 -2 -83 6 -3 5 -15 -2 -31 -9 -20 -9 -30 1 -46 9 -15 10 -23 2 -31
-14 -14 -14 -52 -1 -77 7 -13 7 -21 0 -25 -6 -4 -8 -15 -5 -26 4 -13 -4 -32
-25 -58 -30 -38 -28 -57 4 -45 11 4 16 1 16 -10 0 -9 7 -16 15 -16 15 0 26 -4
73 -29 26 -13 53 -4 31 10 -18 11 0 10 26 -1 17 -7 17 -9 3 -9 -10 -1 -18 -5
-18 -11 0 -5 7 -6 17 -3 11 4 14 3 9 -5 -4 -7 -1 -12 8 -12 8 0 18 5 21 10 3
6 1 10 -6 10 -7 0 -10 2 -8 5 3 2 16 1 29 -2 l24 -6 -24 -9 c-20 -7 -22 -11
-10 -18 8 -5 12 -10 9 -10 -7 0 -177 60 -211 75 -13 5 -18 3 -18 -9 0 -11 19
-21 60 -33 33 -10 60 -22 60 -27 0 -4 -6 -6 -12 -3 -7 2 -40 12 -73 22 -33 9
-67 20 -75 24 -20 9 -52 2 -45 -10 9 -14 -9 -11 -31 5 -15 12 -17 18 -8 33 7
10 21 17 33 16 12 -2 24 4 27 12 4 8 14 15 25 15 23 0 42 34 34 60 -3 10 -1
21 5 25 6 4 8 16 5 26 -4 11 -2 26 5 34 8 10 8 24 0 56 -9 31 -9 44 -1 47 15
5 14 35 -1 50 -9 9 -8 18 2 37 11 21 12 32 1 61 -9 25 -10 39 -2 48 13 16 12
96 -1 113 -6 7 -6 18 0 29 6 11 6 28 0 46 -8 21 -7 33 1 41 6 6 11 21 11 34 0
13 5 23 10 23 6 0 10 13 10 29 0 17 5 33 11 36 14 9 31 54 24 65 -3 5 -16 5
-30 0 -30 -12 -33 -5 -4 10 16 9 24 8 39 -5 10 -9 24 -14 29 -10 6 3 11 1 11
-5 0 -15 18 -3 30 20 8 15 7 18 -3 14 -17 -6 -29 19 -20 41 5 14 8 14 28 1 22
-14 24 -14 35 14 7 17 16 30 21 30 4 0 8 12 8 28 -1 15 2 59 6 97 6 53 3 86
-10 135 -9 36 -17 72 -18 80 0 8 -4 19 -9 25 -21 23 -118 181 -118 191 0 5 -9
29 -20 52 -11 22 -20 48 -20 56 0 8 -4 18 -10 21 -5 3 -10 17 -10 30 0 13 -5
27 -10 30 -6 4 -10 14 -9 23 1 10 1 47 0 85 -1 63 -12 86 -24 52 -8 -19 17
-179 37 -235 12 -35 13 -41 2 -27 -17 21 -43 127 -52 210 -5 47 -10 57 -25 57
-14 0 -19 -8 -21 -32 l-1 -33 -5 35 -6 35 -6 -40 -7 -40 -2 38 -1 37 -66 0
-66 0 7 -67 c4 -36 13 -89 21 -117 7 -28 16 -62 19 -76 4 -21 3 -20 -9 5 -18
38 -46 172 -46 220 0 31 -3 35 -26 35 -25 0 -26 -2 -19 -36 4 -24 3 -34 -4
-29 -6 3 -12 0 -13 -7 -1 -7 -4 12 -8 42 -6 51 -7 53 -17 30 -11 -23 -12 -24
-12 -3 -1 19 -4 20 -26 10 -18 -9 -25 -21 -27 -42 l-1 -30 -4 33 c-3 24 -9 32
-24 32 -16 0 -19 -8 -21 -57 l-2 -58 -3 55 c-3 30 -9 60 -14 67 -19 22 -39 2
-40 -41 l-2 -41 -7 40 -7 40 -3 -35 -3 -35 -4 31 c-3 23 -10 33 -26 36 -39 7
-57 -2 -58 -30 l-2 -27 -4 28 c-4 25 -8 27 -48 27 -24 0 -47 4 -50 10 -8 12
-48 7 -52 -7 -2 -6 -13 -9 -23 -6 -18 5 -19 1 -14 -38 16 -124 76 -276 155
-391 22 -33 39 -62 37 -64 -3 -2 -29 33 -59 79 -64 98 -114 218 -135 324 -18
95 -24 103 -19 27 l4 -59 -10 63 c-10 56 -13 62 -35 62 -19 0 -24 -5 -25 -27
l-1 -28 -7 29 c-3 16 -12 31 -20 34 -20 7 -8 -90 23 -182 13 -39 23 -72 21
-74 -7 -8 -46 115 -57 179 l-12 69 -49 -2 -49 -1 7 -46 c7 -50 39 -158 62
-206 13 -27 12 -28 -1 -11 -20 24 -63 157 -72 219 -3 26 -10 47 -15 47 -12 0
-11 -7 6 -89 17 -84 53 -174 95 -243 17 -28 29 -52 26 -55 -8 -8 -76 123 -105
204 -29 78 -56 207 -47 221 3 5 35 7 73 6 92 -3 100 -3 163 0 30 1 69 -2 87
-8 22 -7 36 -6 45 2 9 7 47 9 113 5 125 -7 140 -6 193 2 27 4 48 3 57 -5 15
-13 81 -4 91 12 4 6 10 5 15 -3 6 -11 14 -10 41 3 18 9 34 17 35 17 1 1 0 -6
-4 -16z m-950 -22 c9 -10 9 -15 -4 -24 -14 -11 -15 -22 -8 -67 12 -74 3 -76
-11 -2 l-12 60 -42 4 c-32 4 -46 0 -63 -17 l-23 -22 21 -78 c21 -83 95 -239
109 -230 4 3 7 -3 6 -13 0 -9 5 -16 12 -14 8 1 11 -2 6 -9 -19 -31 -121 159
-155 289 -14 51 -27 82 -36 82 -7 0 -13 -8 -13 -17 0 -15 -2 -16 -10 -3 -8 12
-10 10 -11 -10 -2 -24 -2 -24 -6 -2 -5 27 -27 24 -31 -4 -5 -34 43 -158 94
-243 50 -84 206 -271 226 -271 7 0 -4 17 -23 38 l-34 37 37 -34 c20 -19 34
-39 31 -47 -3 -8 -1 -14 3 -15 45 -4 67 -16 30 -16 -18 0 -45 21 -98 76 -172
179 -223 259 -293 456 -5 13 -9 15 -12 8 -3 -7 -15 -13 -28 -13 -35 0 -47 -21
-34 -59 6 -17 16 -28 22 -24 5 3 7 1 3 -5 -9 -16 35 -101 56 -108 10 -3 18
-15 18 -28 0 -26 130 -188 207 -257 78 -69 188 -151 287 -213 49 -31 85 -56
79 -56 -14 0 -166 97 -237 150 -32 25 -71 54 -87 66 -49 36 -121 104 -188 178
-35 39 -67 71 -71 71 -5 0 -12 4 -17 9 -5 5 -3 6 5 2 6 -4 12 -4 12 -1 0 12
-37 54 -43 49 -3 -3 -4 3 -3 13 0 10 -4 17 -11 16 -7 -2 -17 7 -23 20 -11 21
-10 21 4 3 24 -30 20 -15 -19 65 -19 41 -35 65 -35 56 0 -10 -4 -16 -9 -12 -5
3 -21 -6 -36 -21 l-26 -26 27 -46 c64 -110 222 -291 299 -343 19 -13 35 -29
35 -34 0 -17 84 -76 205 -146 129 -74 120 -67 112 -75 -5 -6 -113 54 -233 129
-70 44 -170 121 -226 175 -32 31 -52 43 -66 40 -15 -4 -18 -1 -15 12 6 22 0
34 -51 94 -22 25 -46 46 -54 46 -10 0 -13 8 -9 26 6 35 -28 95 -50 87 -19 -7
-35 17 -22 34 6 6 17 9 25 6 10 -4 14 3 14 23 0 30 25 64 47 64 7 0 13 7 13
17 0 14 -2 14 -22 -3 -56 -46 -98 -89 -98 -100 0 -6 -7 -17 -15 -24 -20 -17
-19 -8 6 35 14 22 20 46 17 65 -3 17 -1 30 4 30 4 0 8 -11 8 -25 0 -33 10 -32
46 6 31 32 72 60 60 40 -10 -16 6 -14 32 5 12 8 20 19 17 23 -2 5 5 17 18 27
l22 19 -19 -22 c-25 -30 -12 -29 49 4 42 22 64 27 139 29 48 2 90 5 93 7 9 9
63 1 76 -12z m2472 -17 l27 -35 -27 -25 c-16 -14 -25 -19 -22 -10 3 8 -1 29
-9 46 -14 26 -14 60 -1 60 3 0 17 -16 32 -36z m-3045 -9 c0 -19 -31 -55 -47
-55 -23 0 -24 21 -1 45 26 28 48 32 48 10z m927 -77 c-2 -13 -4 -5 -4 17 -1
22 1 32 4 23 2 -10 2 -28 0 -40z m440 -20 c-2 -13 -4 -3 -4 22 0 25 2 35 4 23
2 -13 2 -33 0 -45z m679 42 c17 0 18 -14 2 -39 -17 -28 -41 -1 -32 36 4 15 9
22 12 15 2 -6 10 -12 18 -12z m-1530 -36 c0 -27 15 -72 42 -128 84 -176 179
-295 336 -420 47 -38 84 -71 82 -74 -8 -7 -147 109 -219 181 -101 103 -192
245 -243 382 -10 28 -25 55 -33 61 -19 15 -6 47 16 42 14 -2 18 -13 19 -44z
m-138 -24 c0 -9 -3 -7 -8 5 -5 11 -8 29 -8 40 0 16 2 15 8 -5 4 -14 8 -32 8
-40z m319 38 c-3 -8 -6 -5 -6 6 -1 11 2 17 5 13 3 -3 4 -12 1 -19z m167 -168
c9 -25 13 -40 8 -35 -15 16 -51 129 -57 177 -4 31 0 23 14 -27 10 -38 26 -90
35 -115z m233 133 c-3 -10 -5 -2 -5 17 0 19 2 27 5 18 2 -10 2 -26 0 -35z
m480 5 c-3 -7 -5 -2 -5 12 0 14 2 19 5 13 2 -7 2 -19 0 -25z m630 0 c-3 -7 -5
-2 -5 12 0 14 2 19 5 13 2 -7 2 -19 0 -25z m947 -40 c46 -92 70 -188 63 -249
-3 -25 -1 -51 4 -56 6 -6 8 -233 7 -594 -3 -511 -5 -584 -18 -584 -8 0 -16 10
-18 23 -2 12 -8 22 -13 22 -12 0 -11 -16 2 -63 8 -31 14 -37 30 -32 18 6 19 1
19 -92 -1 -250 -59 -411 -201 -552 -104 -104 -238 -173 -367 -188 -53 -6 -56
-5 -43 11 11 12 23 16 43 12 15 -3 28 -2 28 2 0 4 19 13 43 20 145 45 278 150
359 285 44 72 46 82 16 65 -13 -7 -29 -11 -37 -9 -11 2 -10 -1 2 -14 20 -20
12 -44 -19 -56 -13 -4 -24 -16 -24 -25 0 -24 -83 -100 -117 -107 -31 -6 -103
-68 -103 -88 0 -6 -7 -3 -16 6 -9 9 -19 14 -23 13 -55 -29 -65 -32 -68 -21 -2
6 -14 9 -26 6 -18 -4 -19 -3 -7 6 13 9 13 11 -3 11 -10 0 -20 7 -24 15 -6 18
43 67 92 92 17 9 36 24 43 34 7 10 19 16 27 13 9 -4 15 0 15 10 0 14 11 20 32
18 13 -2 89 90 85 103 -3 7 5 22 19 34 13 11 24 32 24 45 0 25 22 51 33 39 13
-12 7 -39 -13 -56 -11 -9 -20 -26 -20 -37 0 -11 -26 -45 -60 -78 -33 -33 -60
-66 -60 -75 0 -10 -8 -17 -19 -17 -10 0 -21 -7 -25 -15 -3 -8 -16 -15 -29 -15
-38 0 -92 -42 -92 -70 0 -17 5 -24 15 -21 8 2 24 4 35 4 11 1 22 3 25 6 13 15
52 31 74 31 15 0 43 18 77 50 29 28 56 50 61 50 4 0 8 6 8 14 0 8 10 16 22 18
29 4 41 56 18 76 -8 8 -9 11 -2 7 23 -12 48 5 61 40 7 19 17 35 22 35 5 0 9 6
7 13 -2 7 6 32 16 55 15 33 17 47 8 66 -6 14 -7 27 -1 33 15 15 16 88 2 85
-17 -3 -16 8 2 32 17 22 20 57 6 71 -6 6 -5 26 2 53 8 31 8 48 1 60 -7 10 -8
26 -3 39 4 12 4 36 -1 53 -5 19 -5 41 1 56 12 33 12 84 -1 84 -6 0 -6 9 -1 23
14 36 13 287 -1 304 -9 11 -9 19 -1 33 13 20 6 63 -9 54 -8 -5 -1 45 8 55 2 2
-1 10 -7 18 -9 10 -8 17 1 28 7 8 9 15 4 15 -11 0 -11 118 0 141 4 8 3 26 -2
40 -15 39 -5 53 25 34 l24 -16 -1 78 c-1 43 2 88 5 100 6 19 4 22 -21 20 -36
-3 -48 31 -14 40 16 4 20 11 16 27 -4 11 -9 34 -13 49 -3 16 -12 31 -19 34 -8
3 -14 14 -14 25 0 11 -7 26 -15 34 -8 9 -15 27 -15 40 0 14 -5 34 -11 45 -6
12 -8 27 -5 35 12 30 35 11 70 -58z m-1537 15 c-3 -10 -5 -2 -5 17 0 19 2 27
5 18 2 -10 2 -26 0 -35z m350 25 c-3 -8 -6 -5 -6 6 -1 11 2 17 5 13 3 -3 4
-12 1 -19z m-780 -20 c-3 -7 -5 -2 -5 12 0 14 2 19 5 13 2 -7 2 -19 0 -25z
m-1279 0 c-4 -26 -38 -34 -38 -9 0 21 9 31 27 31 9 0 13 -8 11 -22z m811 -28
c0 -9 -4 -8 -9 5 -5 11 -9 27 -9 35 0 9 4 8 9 -5 5 -11 9 -27 9 -35z m218 18
c-3 -8 -6 -5 -6 6 -1 11 2 17 5 13 3 -3 4 -12 1 -19z m470 -15 c-3 -10 -5 -4
-5 12 0 17 2 24 5 18 2 -7 2 -21 0 -30z m541 14 c2 -11 -3 -17 -17 -17 -23 0
-35 15 -26 31 10 15 39 6 43 -14z m-681 -19 c-3 -7 -5 -2 -5 12 0 14 2 19 5
13 2 -7 2 -19 0 -25z m710 10 c-3 -8 -6 -5 -6 6 -1 11 2 17 5 13 3 -3 4 -12 1
-19z m240 0 c-3 -8 -6 -5 -6 6 -1 11 2 17 5 13 3 -3 4 -12 1 -19z m-1791 -86
c13 -29 19 -50 14 -47 -6 4 -10 0 -10 -7 -1 -7 -12 8 -25 33 -13 25 -30 51
-39 58 -14 12 -14 15 2 36 l17 24 9 -22 c5 -12 19 -46 32 -75z m163 53 c0 -5
-4 -3 -9 5 -5 8 -9 22 -9 30 0 16 17 -16 18 -35z m298 23 c-3 -8 -6 -5 -6 6
-1 11 2 17 5 13 3 -3 4 -12 1 -19z m231 -38 c0 -9 -3 -7 -8 5 -5 11 -8 29 -8
40 0 16 2 15 8 -5 4 -14 8 -32 8 -40z m259 38 c-3 -8 -6 -5 -6 6 -1 11 2 17 5
13 3 -3 4 -12 1 -19z m1393 -13 c0 -5 -5 -3 -10 5 -5 8 -10 20 -10 25 0 6 5 3
10 -5 5 -8 10 -19 10 -25z m-1573 3 c-3 -8 -6 -5 -6 6 -1 11 2 17 5 13 3 -3 4
-12 1 -19z m402 -28 c0 -9 -4 -8 -9 5 -5 11 -9 27 -9 35 0 9 4 8 9 -5 5 -11 9
-27 9 -35z m-1421 15 c-3 -3 -9 2 -12 12 -6 14 -5 15 5 6 7 -7 10 -15 7 -18z
m769 3 c-3 -8 -6 -5 -6 6 -1 11 2 17 5 13 3 -3 4 -12 1 -19z m-966 -22 c6 -21
3 -40 -12 -67 -43 -85 -67 -307 -37 -337 9 -9 9 -15 0 -24 -7 -7 -12 -24 -12
-38 0 -14 5 -31 12 -38 9 -9 9 -15 1 -23 -9 -9 -9 -16 0 -30 9 -14 9 -21 -1
-31 -14 -14 -16 -48 -2 -48 6 0 10 -9 10 -20 0 -11 -4 -20 -10 -20 -14 0 -13
-36 2 -60 10 -15 10 -22 0 -32 -15 -15 -16 -50 0 -66 9 -9 9 -15 0 -24 -15
-15 -16 -90 -1 -105 13 -13 4 -33 -16 -33 -20 0 -29 20 -16 33 15 15 14 90 -1
105 -8 8 -8 15 -1 24 12 14 13 236 1 253 -4 6 -3 17 2 25 5 9 5 20 -2 28 -8 9
-8 16 0 24 7 7 12 24 12 38 0 14 -5 31 -12 38 -8 8 -8 15 -1 24 9 11 21 148
25 281 0 17 4 24 8 17 5 -7 14 7 24 36 23 67 21 92 -6 97 -21 4 -21 4 1 3 18
-1 27 -8 32 -30z m916 2 c-3 -8 -6 -5 -6 6 -1 11 2 17 5 13 3 -3 4 -12 1 -19z
m399 -48 c8 -24 10 -40 5 -35 -11 13 -31 74 -30 94 1 18 -1 21 25 -59z m698
54 c3 -8 2 -12 -4 -9 -6 3 -10 10 -10 16 0 14 7 11 14 -7z m95 -12 c0 -4 -3
-15 -7 -24 -11 -26 -46 3 -37 31 5 17 10 19 26 11 10 -6 19 -14 18 -18z m-702
-4 c-3 -8 -6 -5 -6 6 -1 11 2 17 5 13 3 -3 4 -12 1 -19z m1403 -7 c8 -15 8
-21 1 -17 -16 10 -13 -7 5 -30 13 -16 15 -16 10 -1 -9 27 -1 20 28 -25 20 -31
21 -36 5 -18 -11 14 -26 25 -32 25 -7 0 -23 20 -36 44 -13 24 -19 41 -13 37 7
-4 12 -2 12 5 0 15 3 11 20 -20z m-349 -8 c-12 -20 -14 -14 -5 12 4 9 9 14 11
11 3 -2 0 -13 -6 -23z m-2589 -32 c1 -18 -6 -37 -15 -44 -8 -7 -18 -23 -20
-37 -2 -14 -5 -1 -6 28 -1 37 4 57 17 70 21 23 23 22 24 -17z m1067 -1 c0 -10
-3 -8 -9 5 -12 27 -12 43 0 25 5 -8 9 -22 9 -30z m225 -10 c5 -17 4 -20 -2
-10 -5 8 -13 26 -16 40 -5 17 -4 20 2 10 5 -8 13 -26 16 -40z m463 28 c-3 -8
-6 -5 -6 6 -1 11 2 17 5 13 3 -3 4 -12 1 -19z m-847 -23 c0 -5 -5 -3 -10 5 -5
8 -10 20 -10 25 0 6 5 3 10 -5 5 -8 10 -19 10 -25z m219 -10 c0 -5 -4 -3 -9 5
-5 8 -9 22 -9 30 0 16 17 -16 18 -35z m941 19 c0 -50 120 -244 151 -244 12 0
21 -10 25 -26 8 -30 118 -128 217 -191 92 -60 249 -134 380 -179 59 -20 106
-38 104 -41 -2 -2 -53 14 -113 36 -60 21 -131 46 -159 56 -131 46 -253 121
-365 224 -36 33 -73 60 -82 61 -18 0 -42 33 -32 43 3 3 -12 28 -33 55 -22 27
-55 79 -74 116 -32 62 -55 87 -43 49 2 -10 -3 -3 -13 15 -15 29 -15 34 -3 42
26 17 40 11 40 -16z m-1872 -9 c2 -11 13 -27 24 -36 13 -10 19 -23 15 -33 -9
-22 -24 -20 -38 5 -9 17 -13 19 -20 8 -13 -21 -12 -25 23 -66 l32 -38 -32 29
c-37 34 -44 16 -9 -23 l22 -26 -23 19 c-34 29 -36 13 -2 -19 18 -17 30 -23 30
-15 0 8 12 3 30 -15 16 -15 27 -31 25 -35 -8 -13 32 -41 49 -34 15 6 13 12
-16 43 -24 27 -21 25 14 -8 30 -28 44 -49 41 -59 -4 -8 1 -21 11 -27 9 -7 13
-15 9 -18 -5 -3 -29 12 -54 33 -24 22 -48 39 -54 39 -5 0 6 -13 25 -29 19 -17
31 -30 26 -30 -9 0 -156 119 -156 127 0 6 24 -11 62 -46 15 -13 30 -22 33 -20
3 3 -19 26 -48 51 l-53 46 1 -42 c1 -39 5 -44 65 -88 36 -26 74 -54 85 -63
l20 -16 -20 10 c-11 5 -49 30 -85 56 -54 38 -66 43 -69 28 -2 -9 7 -25 19 -35
26 -21 45 -24 34 -5 -4 7 -3 9 2 4 5 -5 9 -14 9 -20 0 -7 7 -12 15 -12 14 0
170 -93 170 -100 0 -12 -70 21 -146 69 -74 47 -89 54 -97 40 -14 -24 -3 -39
56 -72 31 -17 59 -37 63 -43 4 -7 -23 4 -61 25 -37 21 -65 32 -63 25 3 -8 1
-22 -4 -31 -6 -12 -5 -18 3 -18 8 0 8 -4 -1 -15 -12 -14 -6 -35 10 -35 18 0
110 -44 110 -52 0 -5 -9 -4 -21 2 -11 7 -23 9 -27 6 -10 -10 6 -19 37 -20 16
-1 27 -4 25 -8 -6 -10 67 -32 100 -30 17 2 34 -5 43 -15 8 -10 12 -13 8 -6 -3
7 3 21 14 32 19 19 18 19 -76 62 -53 24 -100 46 -104 47 -5 2 -9 -3 -9 -12 0
-9 -8 -16 -20 -16 -19 0 -24 10 -21 37 1 7 -12 19 -30 28 -17 9 -29 19 -26 21
3 3 43 -14 88 -37 82 -41 331 -149 377 -163 13 -5 22 -10 19 -12 -2 -3 -41 9
-86 25 -60 23 -81 27 -81 17 0 -8 8 -17 18 -21 75 -30 263 -99 290 -107 19 -5
32 -12 29 -14 -7 -7 -288 82 -312 99 -11 8 -28 11 -39 7 -23 -8 66 -41 417
-154 132 -43 237 -80 234 -82 -2 -3 -87 22 -188 55 -257 83 -501 150 -487 134
8 -11 7 -12 -6 -7 -9 3 -16 2 -16 -4 0 -9 47 -30 85 -38 28 -6 126 -43 105
-39 -72 12 -114 17 -110 13 3 -3 37 -17 75 -31 177 -65 210 -78 220 -88 6 -6
-2 -6 -20 1 -162 62 -270 100 -278 97 -5 -1 26 -18 69 -36 99 -41 376 -171
388 -182 11 -10 -105 30 -119 41 -21 16 -248 111 -257 108 -5 -2 57 -36 139
-75 147 -71 313 -160 313 -168 0 -7 -46 12 -102 44 -29 16 -129 64 -223 106
-93 42 -194 87 -224 101 -99 44 -67 24 84 -55 83 -42 238 -126 345 -184 107
-59 199 -107 204 -107 5 0 7 -3 3 -6 -6 -7 -131 55 -299 147 -59 33 -111 59
-116 59 -5 0 -48 20 -94 45 -46 24 -116 58 -156 74 -70 29 -72 29 -85 10 -14
-19 -53 -17 -41 2 3 5 -9 17 -25 27 -17 10 -28 22 -23 27 4 5 1 5 -6 1 -11 -6
-11 -11 0 -24 12 -14 10 -14 -12 -3 -24 11 -24 11 -5 -4 11 -9 49 -34 85 -57
109 -69 141 -91 136 -95 -2 -2 -37 16 -76 41 -52 32 -78 43 -89 37 -9 -5 -31
-6 -49 -4 -29 5 -33 9 -29 29 3 18 -4 29 -34 49 -21 14 -41 25 -44 25 -3 0 -5
-22 -5 -49 0 -47 2 -51 58 -98 31 -28 79 -65 106 -84 48 -33 73 -65 44 -54 -9
4 -19 -4 -26 -20 -6 -14 -17 -25 -24 -25 -6 0 -3 -6 8 -14 10 -8 29 -13 40
-10 16 4 23 0 27 -16 8 -30 -21 -39 -42 -13 -9 11 -26 26 -38 32 -24 12 -25
40 -3 80 12 23 10 27 -21 52 -20 16 -36 23 -38 17 -2 -7 9 -22 25 -35 16 -12
24 -23 18 -23 -6 0 -17 7 -24 15 -7 8 -21 15 -32 15 -23 0 -35 27 -19 43 8 8
4 18 -16 39 -35 37 -43 35 -43 -9 0 -34 6 -42 55 -77 55 -39 71 -56 38 -37
-10 5 -33 21 -52 35 -19 14 -37 24 -39 21 -8 -8 30 -45 80 -77 26 -17 46 -33
43 -36 -2 -2 -32 16 -66 42 -67 49 -97 54 -39 5 19 -16 79 -59 132 -96 54 -36
96 -69 94 -71 -3 -2 -48 26 -102 62 -109 75 -140 82 -42 11 34 -26 65 -49 68
-52 8 -10 -94 50 -111 64 -21 18 -48 17 -56 -2 -6 -17 23 -55 43 -55 7 0 14
-6 17 -12 3 -10 9 -10 27 0 19 12 25 11 38 -2 11 -11 12 -16 4 -16 -28 0 -9
-29 41 -62 75 -50 112 -68 142 -68 14 0 25 -4 25 -10 0 -11 74 -60 90 -60 5 0
10 8 10 18 0 13 -22 29 -72 52 -40 19 -82 35 -93 35 -14 0 -22 10 -28 38 -5
20 -12 37 -15 37 -4 0 -18 10 -32 21 l-25 21 28 -17 c16 -9 36 -14 44 -11 8 4
29 -2 47 -13 17 -10 61 -35 99 -55 62 -35 67 -36 67 -17 0 14 6 21 19 21 25 0
35 -27 13 -39 -14 -8 -11 -12 21 -27 20 -10 37 -22 37 -27 0 -5 13 -6 29 -2
21 4 32 2 38 -10 5 -8 76 -42 159 -75 127 -51 151 -57 160 -45 16 22 33 18 45
-9 8 -16 17 -22 27 -19 11 5 13 3 7 -7 -5 -9 -4 -11 3 -6 13 8 128 -29 220
-70 64 -28 72 -29 72 -9 0 10 10 15 29 15 16 0 34 7 41 15 7 8 17 15 22 15 6
0 4 -7 -3 -16 -12 -15 -11 -16 6 -11 19 6 82 10 118 8 10 -1 17 -9 17 -21 0
-18 -7 -20 -64 -20 -36 0 -68 5 -71 10 -4 7 -13 7 -26 0 -13 -7 -19 -7 -19 0
0 5 -10 10 -22 10 -23 -1 -23 -1 -3 -16 11 -8 25 -12 32 -10 17 7 336 -98 326
-107 -4 -5 -1 -5 7 -2 19 7 121 -27 123 -40 0 -6 48 -29 105 -52 57 -23 107
-45 111 -49 7 -8 17 -12 -168 60 -80 31 -150 55 -157 52 -7 -3 -126 33 -266
79 -139 46 -255 81 -258 78 -3 -2 4 -11 14 -19 18 -13 17 -14 -16 -14 -43 0
-60 26 -25 39 19 7 14 11 -38 26 -33 9 -113 34 -177 56 -64 21 -119 39 -123
39 -9 0 7 -54 19 -62 28 -19 -21 -5 -81 22 -35 16 -75 33 -89 36 -13 3 -27 10
-30 15 -8 13 0 11 62 -16 64 -28 64 -28 64 -16 0 13 -116 52 -134 45 -9 -3
-16 -9 -16 -13 0 -9 20 -37 20 -28 0 5 7 1 16 -7 8 -9 19 -14 24 -11 10 6 79
-32 102 -58 9 -10 39 -27 66 -37 46 -18 50 -18 46 -2 -3 10 4 22 15 29 17 11
21 10 26 -7 4 -12 28 -26 73 -41 37 -12 73 -24 81 -27 10 -4 13 -1 8 10 -8 22
24 34 38 15 6 -8 91 -40 191 -70 213 -66 510 -170 497 -174 -5 -2 -58 15 -119
37 -114 43 -547 180 -567 180 -29 0 17 -21 123 -55 180 -58 461 -158 456 -162
-2 -2 -75 20 -162 51 -309 107 -619 205 -626 198 -4 -4 117 -50 269 -102 392
-135 414 -142 409 -147 -2 -2 -50 13 -107 32 -210 74 -314 104 -334 99 -17 -4
-18 -3 -5 6 13 10 13 11 -2 7 -9 -3 -45 5 -80 18 -83 30 -215 82 -255 100 -41
18 -78 9 -42 -11 l24 -12 -27 1 c-14 1 -24 5 -22 9 2 3 -9 9 -26 13 -16 4 -32
11 -35 16 -4 5 6 4 21 -1 59 -23 23 19 -39 45 -37 15 -38 15 -27 -5 6 -11 16
-20 22 -20 6 0 9 -3 6 -6 -4 -3 -15 -1 -26 5 -14 7 -24 6 -40 -5 -19 -13 -21
-12 -27 5 -3 11 -20 24 -36 30 -26 9 -30 8 -25 -5 3 -9 2 -12 -5 -8 -6 3 -19
-3 -30 -15 -10 -11 -26 -18 -34 -15 -21 8 -19 42 3 46 10 2 -21 24 -81 56 -54
28 -100 52 -102 52 -3 0 -5 -7 -5 -15 0 -14 -12 -19 -32 -16 -5 0 -8 -2 -8 -7
0 -12 68 -52 88 -52 10 0 29 -11 41 -24 12 -13 68 -46 124 -73 56 -28 122 -60
147 -72 25 -12 37 -20 28 -17 -10 3 -18 3 -18 1 0 -5 148 -76 268 -130 34 -15
61 -30 58 -32 -10 -10 -524 239 -596 290 -12 9 -28 13 -36 10 -8 -3 -16 2 -20
10 -7 20 -78 67 -100 67 -14 0 -15 -2 -3 -17 13 -15 12 -15 -7 -5 -11 6 -27
19 -35 28 -9 12 -9 15 -1 10 7 -4 12 -1 12 9 0 8 7 18 15 21 8 4 12 11 8 17
-3 6 -1 7 5 3 7 -4 19 -3 27 2 13 7 5 16 -39 45 l-54 36 8 -30 c8 -28 7 -30
-13 -23 -34 11 -51 44 -22 44 8 0 15 4 15 10 0 5 -6 7 -12 5 -7 -3 -26 5 -42
18 l-28 23 37 1 c28 1 43 -5 56 -20 15 -18 18 -19 19 -5 0 9 -35 43 -80 77
l-81 61 2 -45 c2 -27 9 -51 18 -58 14 -11 14 -10 2 6 -7 9 -9 17 -3 17 12 0
38 -30 26 -30 -5 -1 7 -14 26 -30 38 -33 23 -42 -17 -10 -20 16 -28 17 -44 7
-19 -11 -17 -14 23 -49 24 -21 48 -38 53 -38 6 0 24 -15 40 -32 26 -26 27 -29
7 -19 -42 22 -35 3 10 -28 23 -17 52 -37 63 -45 19 -15 19 -15 1 -9 -14 5 -17
3 -11 -7 9 -14 4 -12 -63 34 -23 16 -39 32 -37 36 3 5 -9 19 -26 31 -27 19
-30 24 -15 29 15 5 10 12 -27 43 -42 34 -45 40 -44 81 1 24 0 43 -2 40 -2 -2
-10 1 -18 7 -16 14 -17 91 -1 107 9 9 9 15 0 24 -15 15 -15 79 0 113 9 20 9
31 1 45 -8 11 -12 75 -12 175 1 127 3 157 15 162 12 5 12 7 -1 17 -14 10 -16
45 -12 296 4 274 8 313 39 393 12 32 41 33 46 2z m817 -57 c15 -29 48 -82 72
-118 25 -35 38 -59 30 -51 -32 26 -149 221 -133 221 2 0 16 -24 31 -52z m1615
46 c0 -8 -19 -13 -24 -6 -3 5 1 9 9 9 8 0 15 -2 15 -3z m-436 -66 c-8 -13 -42
-9 -47 5 -2 6 3 19 12 28 15 15 17 14 28 -5 6 -11 9 -24 7 -28z m-1268 -10 c8
-16 13 -28 10 -28 -6 0 -46 66 -46 76 0 10 14 -8 36 -48z m423 -43 c0 -5 -11
10 -24 35 -13 25 -24 50 -24 55 0 6 11 -10 24 -35 13 -25 24 -49 24 -55z
m1099 60 c-3 -3 -9 2 -12 12 -6 14 -5 15 5 6 7 -7 10 -15 7 -18z m-1339 -15
c11 -24 11 -24 -3 -6 -9 11 -16 24 -16 30 0 12 5 7 19 -24z m1441 10 c6 -11 8
-20 6 -20 -3 0 -10 9 -16 20 -6 11 -8 20 -6 20 3 0 10 -9 16 -20z m501 -42
c15 -28 5 -21 -21 15 -15 20 -17 27 -6 18 9 -8 22 -23 27 -33z m-967 16 c3 -8
2 -12 -4 -9 -6 3 -10 10 -10 16 0 14 7 11 14 -7z m217 -21 c66 -110 125 -169
311 -316 22 -18 22 -18 -11 0 -51 27 -194 155 -240 215 -43 55 -96 138 -87
138 2 0 15 -17 27 -37z m-1626 -45 c26 -35 39 -55 28 -45 -20 18 -87 107 -80
107 2 0 25 -28 52 -62z m-702 -18 c-13 -20 -14 -208 -2 -216 5 -3 6 -10 3 -16
-4 -6 -7 -25 -8 -42 -1 -20 -6 -31 -16 -31 -11 0 -15 13 -16 48 -1 26 2 50 7
53 13 8 11 48 -3 62 -10 10 -10 17 0 32 15 24 16 84 2 110 -7 14 -7 25 2 39
12 19 12 19 27 -1 10 -15 11 -25 4 -38z m1025 -7 c27 -38 62 -79 76 -92 14
-14 26 -28 26 -33 0 -13 -131 139 -154 180 -18 32 6 6 52 -55z m725 43 c8 -19
-1 -26 -34 -26 -29 0 -44 13 -34 30 9 15 62 12 68 -4z m151 -12 c-5 -18 0 -32
17 -50 12 -13 28 -24 35 -24 6 0 22 -19 34 -42 20 -39 20 -41 3 -25 -11 9 -23
17 -28 17 -5 0 -16 7 -26 16 -17 15 -19 15 -30 -10 -11 -24 -9 -29 23 -60 30
-29 35 -40 35 -80 0 -25 6 -57 13 -71 10 -20 11 -28 2 -37 -7 -7 -13 -21 -13
-33 -1 -14 -4 -11 -9 10 -4 17 -5 48 -2 71 3 32 0 45 -16 60 -11 10 -24 33
-28 49 -4 17 -15 42 -25 57 -25 34 -24 58 0 58 28 0 36 18 17 39 -16 18 -22
62 -9 74 12 12 13 7 7 -19z m-269 6 c13 -6 15 -9 5 -9 -8 0 -22 4 -30 9 -18
12 -2 12 25 0z m865 -68 c63 -75 177 -171 263 -224 26 -17 47 -32 47 -35 0
-13 -150 89 -228 155 -51 43 -152 162 -152 178 0 4 2 5 4 3 2 -2 31 -37 66
-77z m-643 52 c5 -14 -11 -33 -28 -34 -10 0 -20 31 -13 41 9 15 34 10 41 -7z
m-1557 -30 c0 -3 -7 -1 -15 6 -8 7 -15 17 -15 22 0 5 7 3 15 -6 8 -8 15 -18
15 -22z m1222 16 c15 0 28 -2 28 -4 0 -17 -15 -36 -29 -36 -21 -1 -45 -20 -54
-42 -3 -10 -14 -18 -22 -18 -9 0 -13 -5 -10 -11 4 -6 -6 -27 -22 -47 -31 -39
-57 -118 -42 -128 11 -7 12 -41 1 -48 -4 -2 -14 -1 -21 4 -12 7 -11 19 3 74 9
36 16 76 16 89 0 13 11 36 25 51 13 15 29 35 35 46 6 11 19 20 29 20 10 0 24
7 31 15 10 13 9 19 -6 38 -10 12 -12 16 -4 10 8 -7 27 -13 42 -13z m1068 -46
c0 -11 -49 48 -50 59 0 5 11 -5 25 -21 14 -17 25 -34 25 -38z m80 31 c19 -19
32 -35 29 -35 -3 0 -20 16 -39 35 -19 19 -32 35 -29 35 3 0 20 -16 39 -35z
m-2289 -2 c13 -16 12 -17 -3 -4 -10 7 -18 15 -18 17 0 8 8 3 21 -13z m513
-102 c5 -9 -13 8 -40 38 -27 30 -53 61 -58 70 -10 20 86 -86 98 -108z m1432
101 c6 -4 14 -17 18 -29 10 -33 133 -143 231 -208 108 -71 231 -129 393 -185
67 -24 121 -44 119 -46 -4 -4 -162 49 -272 91 -152 58 -333 175 -440 284 -27
28 -55 51 -62 51 -17 0 -24 15 -17 34 7 18 13 19 30 8z m1000 -30 c-15 -15
-15 -15 -4 10 7 15 15 23 17 17 2 -6 -4 -18 -13 -27z m-99 -114 c-2 -99 -6
-123 -17 -123 -11 0 -15 24 -17 123 -3 116 -2 122 17 122 19 0 20 -6 17 -122z
m-1584 86 c-105 -23 -167 -67 -211 -151 -17 -31 -28 -143 -15 -151 6 -4 7 -16
3 -27 -6 -16 -9 -13 -15 18 -31 158 91 319 245 323 l55 2 -62 -14z m1022 -35
c28 -28 87 -76 132 -106 95 -63 124 -92 36 -37 -96 62 -251 194 -227 194 5 0
32 -23 59 -51z m98 -49 c-2 -2 -23 16 -46 40 l-42 44 46 -40 c25 -21 44 -41
42 -44z m87 -27 c0 -8 -55 35 -80 63 -14 16 -2 9 28 -16 28 -24 52 -45 52 -47z
m-2629 60 c13 -16 12 -17 -3 -4 -10 7 -18 15 -18 17 0 8 8 3 21 -13z m230 -20
c13 -16 12 -17 -3 -4 -17 13 -22 21 -14 21 2 0 10 -8 17 -17z m19 -73 c47 -31
121 -76 165 -100 44 -24 89 -51 100 -60 11 -9 69 -36 129 -61 59 -24 103 -45
97 -47 -25 -8 -437 174 -476 210 -17 16 -17 18 -2 12 9 -3 17 -2 17 4 0 5 -31
29 -70 52 -38 23 -70 47 -70 52 0 11 1 10 110 -62z m1590 51 c5 -11 9 -30 9
-43 -1 -13 1 -36 5 -53 6 -23 5 -26 -3 -15 -6 8 -11 23 -11 32 0 9 -6 21 -14
25 -18 11 -34 45 -29 61 7 18 31 15 43 -7z m-1530 -37 c0 -3 -13 4 -30 16 -16
12 -30 24 -30 26 0 3 14 -4 30 -16 17 -12 30 -24 30 -26z m725 12 c-9 -13 -20
-59 -25 -102 l-9 -79 4 75 c4 79 17 130 35 130 6 0 4 -10 -5 -24z m-330 -16
c10 -11 16 -20 13 -20 -3 0 -13 9 -23 20 -10 11 -16 20 -13 20 3 0 13 -9 23
-20z m-305 -57 c0 -7 -61 31 -73 46 -7 8 7 2 31 -14 23 -15 42 -30 42 -32z
m-160 11 c0 -2 -13 2 -30 11 -16 9 -30 18 -30 21 0 2 14 -2 30 -11 17 -9 30
-18 30 -21z m511 9 c13 -16 12 -17 -3 -4 -17 13 -22 21 -14 21 2 0 10 -8 17
-17z m1267 -10 c2 -13 6 -23 10 -23 4 0 18 -10 32 -21 l25 -21 -29 17 c-16 10
-40 21 -54 24 -14 4 -29 17 -33 30 -8 20 -6 22 19 19 19 -2 28 -9 30 -25z
m722 1 c0 -2 -9 0 -20 6 -11 6 -20 13 -20 16 0 2 9 0 20 -6 11 -6 20 -13 20
-16z m-1910 -50 c0 -3 -13 4 -30 16 -16 12 -30 24 -30 26 0 3 14 -4 30 -16 17
-12 30 -24 30 -26z m-580 0 c0 -18 125 -79 141 -68 7 4 9 3 5 -4 -7 -12 228
-107 414 -167 63 -21 119 -41 124 -46 25 -22 -294 89 -494 173 -191 81 -206
86 -195 69 6 -10 3 -11 -14 -2 -24 14 -29 51 -5 51 9 0 12 5 8 12 -4 7 -3 8 4
4 7 -4 12 -14 12 -22z m2260 0 c0 -2 -9 0 -20 6 -11 6 -20 13 -20 16 0 2 9 0
20 -6 11 -6 20 -13 20 -16z m195 6 c3 -6 -1 -7 -9 -4 -18 7 -21 14 -7 14 6 0
13 -4 16 -10z m-39 -38 c-5 -4 -66 26 -66 33 0 3 16 -3 35 -12 19 -9 33 -18
31 -21z m-121 10 c-3 -3 -11 0 -18 7 -9 10 -8 11 6 5 10 -3 15 -9 12 -12z
m465 -11 c0 -23 -9 -31 -26 -24 -17 6 -18 40 -1 46 17 6 27 -1 27 -22z m-230
4 c14 -8 21 -14 15 -14 -5 0 -21 6 -35 14 -14 8 -20 14 -15 14 6 0 21 -6 35
-14z m-905 -56 c0 -47 -2 -54 -20 -54 -18 0 -20 5 -16 50 4 57 8 68 24 62 7
-2 12 -26 12 -58z m285 30 c17 -13 18 -17 5 -10 -33 17 -51 31 -40 31 6 0 21
-10 35 -21z m440 11 c8 -5 11 -10 5 -10 -5 0 -17 5 -25 10 -8 5 -10 10 -5 10
6 0 17 -5 25 -10z m140 -15 c14 -8 21 -14 15 -14 -5 0 -21 6 -35 14 -14 8 -20
14 -15 14 6 0 21 -6 35 -14z m-1574 -26 c2 -34 21 -79 34 -79 7 0 9 9 5 23 -5
18 -3 17 10 -5 9 -16 22 -28 30 -28 9 0 12 -6 9 -15 -4 -9 0 -15 10 -15 16 0
39 -33 30 -43 -3 -3 4 -8 15 -12 30 -9 28 -47 -1 -43 -15 2 -22 9 -22 21 1 9
-2 17 -7 17 -12 0 -11 -17 1 -60 6 -19 12 -127 15 -240 2 -113 1 -194 -2 -180
-3 14 -9 27 -13 30 -5 3 -4 28 1 55 5 27 5 51 1 53 -5 1 -5 24 -1 50 4 26 3
52 -2 58 -5 6 -6 13 -3 17 3 3 3 45 -1 93 -6 73 -11 91 -31 109 -16 15 -20 25
-13 36 5 7 9 22 9 32 0 15 -3 15 -20 5 -17 -11 -22 -10 -30 2 -5 8 -6 18 -4
22 3 4 2 13 -2 19 -5 8 -9 8 -14 -1 -5 -8 -10 0 -15 21 -4 19 -12 40 -17 46
-13 16 -2 46 15 40 6 -2 13 -15 13 -28z m-360 -37 c-5 -4 -66 26 -66 33 0 3
16 -3 35 -12 19 -9 33 -18 31 -21z m1293 11 c16 -16 67 -43 115 -62 48 -18 85
-35 83 -37 -2 -3 -42 10 -88 27 -46 17 -97 37 -114 43 -32 12 -92 52 -63 43
10 -4 20 -2 23 3 9 15 14 13 44 -17z m-373 -32 c-25 -47 -35 -45 -12 3 12 23
22 39 24 35 2 -4 -4 -21 -12 -38z m539 31 c-3 -3 -11 0 -18 7 -9 10 -8 11 6 5
10 -3 15 -9 12 -12z m-1235 -17 c-7 -9 -15 -13 -19 -10 -3 3 1 10 9 15 21 14
24 12 10 -5z m-1251 -13 c12 -23 -2 -47 -23 -39 -24 10 -20 57 5 57 5 0 13 -8
18 -18z m2551 8 c8 -5 11 -10 5 -10 -5 0 -17 5 -25 10 -8 5 -10 10 -5 10 6 0
17 -5 25 -10z m-1440 -20 c8 -5 11 -10 5 -10 -5 0 -17 5 -25 10 -8 5 -10 10
-5 10 6 0 17 -5 25 -10z m1520 -10 c18 -12 2 -12 -25 0 -13 6 -15 9 -5 9 8 0
22 -4 30 -9z m598 -63 c0 -23 -6 -50 -13 -60 -12 -17 -13 -17 -18 10 -13 73
-7 106 18 97 9 -4 14 -20 13 -47z m-1958 27 c0 -8 -4 -12 -10 -9 -5 3 -10 10
-10 16 0 5 5 9 10 9 6 0 10 -7 10 -16z m644 -3 c8 -12 -32 -61 -50 -61 -19 0
-18 29 3 52 17 19 38 24 47 9z m-781 -31 c38 -12 66 -24 64 -26 -5 -5 -148 43
-156 53 -3 3 1 4 9 1 8 -3 46 -15 83 -28z m1642 20 c13 -6 15 -9 5 -9 -8 0
-22 4 -30 9 -18 12 -2 12 25 0z m-2242 -7 c-7 -2 -19 -2 -25 0 -7 3 -2 5 12 5
14 0 19 -2 13 -5z m52 -13 c13 -6 15 -9 5 -9 -8 0 -22 4 -30 9 -18 12 -2 12
25 0z m2077 -16 c82 -23 131 -44 103 -44 -13 0 -212 68 -203 69 4 1 49 -11
100 -25z m-435 0 c-3 -3 -12 -4 -19 -1 -8 3 -5 6 6 6 11 1 17 -2 13 -5z
m-1271 -38 c38 -14 64 -25 58 -25 -5 -1 -41 10 -80 23 -38 14 -64 25 -58 25 5
1 41 -10 80 -23z m281 18 c-3 -3 -12 -4 -19 -1 -8 3 -5 6 6 6 11 1 17 -2 13
-5z m73 -14 c6 -11 8 -20 6 -20 -3 0 -10 9 -16 20 -6 11 -8 20 -6 20 3 0 10
-9 16 -20z m1650 10 c8 -5 11 -10 5 -10 -5 0 -17 5 -25 10 -8 5 -10 10 -5 10
6 0 17 -5 25 -10z m-150 -30 c8 -5 11 -10 5 -10 -5 0 -17 5 -25 10 -8 5 -10
10 -5 10 6 0 17 -5 25 -10z m-2807 -15 c4 -8 2 -17 -3 -20 -6 -4 -11 -164 -12
-403 l-3 -397 -2 389 c-2 265 -7 393 -14 402 -14 17 -5 44 15 44 7 0 16 -7 19
-15z m752 5 c13 -6 15 -9 5 -9 -8 0 -22 4 -30 9 -18 12 -2 12 25 0z m2465 -15
c0 -8 -4 -15 -10 -15 -5 0 -7 7 -4 15 4 8 8 15 10 15 2 0 4 -7 4 -15z m-2383
-9 c21 -8 58 -20 82 -26 32 -8 40 -14 31 -20 -8 -5 -19 -5 -25 -1 -12 9 -100
42 -120 45 -18 3 -32 16 -17 16 6 0 29 -7 49 -14z m350 -24 c45 -14 81 -28 79
-30 -5 -4 -198 57 -206 65 -6 7 17 0 127 -35z m393 -92 c0 -101 -4 -117 -27
-99 -9 8 -13 40 -13 109 0 101 4 117 27 99 9 -8 13 -40 13 -109z m1380 74 c0
-2 -13 2 -30 11 -16 9 -30 18 -30 21 0 2 14 -2 30 -11 17 -9 30 -18 30 -21z
m-2605 16 c3 -6 -1 -7 -9 -4 -18 7 -21 14 -7 14 6 0 13 -4 16 -10z m2875 -41
c0 -22 -5 -29 -20 -29 -21 0 -27 30 -14 64 10 25 34 0 34 -35z m-2758 14 c15
-3 34 -16 43 -29 11 -18 22 -23 38 -19 16 5 32 -2 53 -20 29 -27 210 -131 404
-233 58 -30 110 -59 115 -64 18 -17 -176 82 -315 162 -173 98 -184 104 -176
92 15 -25 283 -190 417 -257 38 -20 69 -38 69 -40 0 -12 -261 130 -371 202
-70 46 -90 53 -68 26 12 -14 10 -14 -13 1 -32 21 -36 28 -10 20 27 -9 -25 32
-92 72 -32 19 -64 33 -71 30 -7 -2 -32 9 -56 25 -24 16 -40 29 -36 29 4 0 19
-7 32 -16 15 -10 25 -12 25 -5 0 5 -12 18 -27 26 -16 9 -19 13 -8 9 11 -4 32
-9 47 -11z m918 -93 c0 -44 5 -81 12 -88 8 -8 8 -15 0 -24 -6 -8 -13 -41 -15
-73 l-3 -60 -2 60 c-1 34 -7 66 -14 73 -8 8 -8 15 1 26 9 11 12 42 10 100 -2
46 -1 79 3 73 4 -7 8 -46 8 -87z m437 84 c8 -21 -13 -42 -28 -27 -13 13 -5 43
11 43 6 0 13 -7 17 -16z m-1715 -145 c7 -5 6 -17 -3 -37 l-13 -30 -13 26 c-9
17 -10 29 -3 36 5 5 11 21 11 36 l2 25 4 -25 c3 -14 10 -28 15 -31z m379 34
c13 -16 12 -17 -3 -4 -10 7 -18 15 -18 17 0 8 8 3 21 -13z m1335 -76 c-1 -66
-4 -82 -16 -82 -12 0 -15 16 -17 75 -3 86 1 102 21 94 10 -4 13 -25 12 -87z
m-1277 39 c7 -6 27 -9 44 -7 26 2 29 0 24 -18 -2 -11 0 -22 7 -25 6 -2 4 -5
-5 -5 -14 -1 -109 65 -109 76 0 5 19 -5 39 -21z m96 -96 c66 -43 127 -85 135
-92 8 -7 17 -12 20 -12 12 3 150 -71 154 -83 4 -9 -1 -10 -22 -1 -64 28 -272
150 -272 160 0 6 -3 9 -6 5 -3 -3 -36 14 -73 39 -36 24 -76 44 -88 44 -16 0
-23 6 -23 18 0 28 11 34 34 17 12 -9 75 -51 141 -95z m434 84 c14 -12 -19 -1
-35 12 -18 14 -18 14 6 3 14 -6 27 -13 29 -15z m1661 0 c0 -2 -9 0 -20 6 -11
6 -20 13 -20 16 0 2 9 0 20 -6 11 -6 20 -13 20 -16z m80 -50 c0 -7 -58 25 -65
36 -3 5 10 1 29 -11 20 -12 36 -23 36 -25z m-1242 -31 c0 -55 -3 -64 -23 -56
-17 6 -20 39 -5 48 8 5 7 11 -1 21 -9 11 -9 17 1 29 19 23 28 9 28 -42z m1148
26 c3 -6 -5 -3 -20 6 -14 10 -26 19 -26 22 0 7 39 -17 46 -28z m235 -6 c13
-16 12 -17 -3 -4 -17 13 -22 21 -14 21 2 0 10 -8 17 -17z m264 -44 c-11 -34
-38 -1 -29 35 6 27 7 27 21 6 8 -12 12 -29 8 -41z m-2795 15 c22 -15 40 -29
40 -31 0 -5 -27 11 -75 44 -11 7 -16 13 -12 13 4 0 25 -12 47 -26z m-314 -23
c-9 -14 -33 -14 -41 -1 -4 6 -1 18 6 26 11 13 14 13 27 0 8 -8 11 -19 8 -25z
m2599 -2 c30 -17 55 -37 55 -44 0 -7 14 -18 30 -25 17 -7 33 -17 36 -22 8 -12
-17 0 -118 59 -43 25 -75 50 -72 54 7 13 8 12 69 -22z m180 13 c-3 -3 -11 0
-18 7 -9 10 -8 11 6 5 10 -3 15 -9 12 -12z m-1710 -10 c-3 -3 -11 0 -18 7 -9
10 -8 11 6 5 10 -3 15 -9 12 -12z m1665 -22 c8 -5 11 -10 5 -10 -5 0 -21 10
-35 21 -24 20 -5 13 30 -11z m-2571 -37 c2 -2 0 -3 -6 -3 -6 0 -21 9 -34 21
l-24 20 30 -17 c17 -10 32 -19 34 -21z m308 23 c17 -28 223 -129 538 -262 83
-35 143 -64 135 -64 -16 0 -362 146 -452 191 -60 30 -84 36 -73 18 4 -5 -30 8
-74 31 -45 22 -81 42 -81 45 0 3 23 -6 51 -21 28 -14 53 -23 56 -20 8 7 -97
58 -110 53 -20 -7 -47 12 -41 28 8 19 40 20 51 1z m2635 -52 c-2 -32 -8 -63
-14 -69 -6 -7 -9 4 -7 30 1 22 -2 48 -6 58 -9 22 1 50 18 44 8 -3 11 -22 9
-63z m-3104 12 c5 -24 -10 -38 -31 -30 -17 6 -23 35 -10 48 12 12 38 1 41 -18z
m1281 -32 c-14 -14 -17 -14 -29 0 -10 13 -10 19 0 32 12 14 15 14 29 0 14 -15
14 -17 0 -32z m179 -44 c1 -71 -1 -81 -16 -78 -19 4 -26 55 -9 76 7 9 6 20 -3
37 -11 20 -11 27 0 40 21 25 27 9 28 -75z m1152 25 c0 -3 -22 6 -50 20 -27 14
-50 28 -50 30 0 3 23 -6 50 -20 28 -14 50 -28 50 -30z m-115 35 c3 -6 -1 -7
-9 -4 -18 7 -21 14 -7 14 6 0 13 -4 16 -10z m-1445 -10 c8 -5 11 -10 5 -10 -5
0 -17 5 -25 10 -8 5 -10 10 -5 10 6 0 17 -5 25 -10z m337 -37 c-3 -10 -5 -4
-5 12 0 17 2 24 5 18 2 -7 2 -21 0 -30z m1471 -41 c15 -12 -6 -2 -47 22 -40
25 -76 48 -80 52 -12 14 100 -51 127 -74z m-1728 43 c14 -8 21 -14 15 -14 -5
0 -21 6 -35 14 -14 8 -20 14 -15 14 6 0 21 -6 35 -14z m-95 -5 c3 -6 -1 -7 -9
-4 -18 7 -21 14 -7 14 6 0 13 -4 16 -10z m-1044 -53 c-14 -14 -15 -203 -1
-212 6 -4 8 -34 5 -75 -5 -70 12 -152 42 -198 11 -19 17 -21 29 -11 12 10 13
7 8 -19 -4 -22 -1 -33 13 -43 10 -8 23 -27 28 -44 7 -19 19 -31 35 -35 29 -7
42 -50 15 -50 -8 0 -18 7 -21 15 -9 23 -43 18 -54 -7 -8 -19 -10 -20 -7 -3 1
11 13 25 26 32 l25 12 -32 18 c-21 12 -32 26 -32 41 0 14 -8 26 -22 31 -13 5
-23 17 -23 27 0 10 -11 24 -25 32 -23 13 -23 13 -2 9 28 -6 27 -2 -2 50 -14
24 -21 45 -17 48 10 5 2 55 -11 72 -13 16 -19 91 -7 98 13 9 11 199 -2 212 -8
8 -7 16 2 31 l13 21 14 -20 c11 -15 11 -24 3 -32z m1291 -14 c7 -9 7 -18 -2
-29 -12 -13 -15 -13 -29 0 -12 12 -12 19 -3 28 7 7 13 23 13 38 l2 25 4 -25
c3 -14 10 -31 15 -37z m428 10 c0 -19 -30 -29 -40 -12 -5 7 -4 21 1 32 8 14
13 16 25 6 8 -6 14 -18 14 -26z m-800 2 c14 -8 21 -14 15 -14 -5 0 -21 6 -35
14 -14 8 -20 14 -15 14 6 0 21 -6 35 -14z m490 -50 c0 -27 39 -94 40 -69 0 5
-5 15 -11 21 -14 14 -5 43 14 43 21 0 49 -78 34 -95 -10 -11 -19 -6 -49 27
-21 22 -38 46 -38 54 0 8 -4 14 -8 14 -4 0 -6 17 -4 38 4 30 6 33 13 17 4 -11
8 -33 9 -50z m-660 35 c19 -11 31 -19 25 -19 -5 0 -26 8 -45 19 -19 11 -30 19
-25 19 6 0 26 -8 45 -19z m1690 10 c8 -5 11 -10 5 -10 -5 0 -17 5 -25 10 -8 5
-10 10 -5 10 6 0 17 -5 25 -10z m530 -47 c0 -7 -39 17 -46 28 -3 6 5 3 20 -6
14 -10 26 -19 26 -22z m143 -19 l-9 -26 -13 26 c-12 21 -12 28 -1 41 12 15 14
15 22 0 6 -9 6 -27 1 -41z m-2113 36 c8 -5 11 -10 5 -10 -5 0 -17 5 -25 10 -8
5 -10 10 -5 10 6 0 17 -5 25 -10z m1280 0 c8 -5 11 -10 5 -10 -5 0 -17 5 -25
10 -8 5 -10 10 -5 10 6 0 17 -5 25 -10z m385 -40 c3 -5 -14 1 -39 13 -27 13
-40 24 -33 29 10 6 60 -22 72 -42z m-1845 30 c8 -5 11 -10 5 -10 -5 0 -17 5
-25 10 -8 5 -10 10 -5 10 6 0 17 -5 25 -10z m1710 0 c8 -5 11 -10 5 -10 -5 0
-17 5 -25 10 -8 5 -10 10 -5 10 6 0 17 -5 25 -10z m-810 -32 c0 -28 -18 -58
-35 -58 -18 0 -21 60 -4 77 16 16 39 5 39 -19z m592 24 c-9 -6 0 -14 28 -27
22 -10 38 -20 36 -22 -2 -2 -24 6 -50 18 -31 15 -42 26 -33 31 6 4 17 8 22 8
6 0 4 -4 -3 -8z m-2195 -97 c0 -10 -7 -13 -19 -9 -10 3 -18 1 -18 -4 0 -16 12
-21 29 -12 12 6 24 2 41 -12 18 -14 20 -18 7 -14 -68 22 61 -82 228 -184 138
-85 138 -85 134 -98 -4 -10 -221 122 -309 187 -19 14 -29 18 -21 8 7 -9 9 -17
3 -17 -12 0 -34 25 -27 32 3 3 -3 11 -12 19 -16 13 -17 12 -4 -3 21 -28 -3
-21 -30 8 -31 33 -65 53 -52 30 11 -20 112 -106 124 -106 6 0 7 -5 3 -12 -4
-6 -3 -8 3 -5 11 7 31 -11 31 -28 0 -5 6 -11 13 -14 8 -2 9 1 3 10 -7 12 -5
12 9 1 9 -8 15 -19 14 -24 -1 -6 4 -13 12 -16 9 -3 11 0 6 8 -5 9 -4 11 4 6 6
-4 9 -11 6 -16 -6 -9 73 -72 168 -135 31 -21 55 -40 53 -42 -6 -6 -70 38 -201
135 -55 41 -105 75 -112 75 -7 0 -10 4 -8 8 3 3 -3 13 -12 20 -12 10 -14 10
-9 2 13 -23 -8 -14 -44 20 -20 17 -11 7 20 -23 76 -74 144 -137 208 -189 28
-24 50 -46 47 -49 -4 -5 -166 131 -264 222 -32 30 -56 45 -59 38 -6 -19 35
-77 90 -127 27 -24 60 -57 71 -72 12 -16 -11 4 -51 42 -41 39 -82 83 -94 98
-24 34 -47 124 -48 189 0 26 -5 58 -11 72 -9 19 -8 28 2 39 12 14 18 12 45
-14 17 -16 31 -36 31 -44z m2498 65 c3 -6 -1 -7 -9 -4 -18 7 -21 14 -7 14 6 0
13 -4 16 -10z m55 -25 c17 -9 30 -18 30 -21 0 -4 -59 23 -69 32 -10 9 13 3 39
-11z m-1031 -19 c10 -12 8 -17 -8 -25 -22 -12 -37 0 -27 24 7 19 20 19 35 1z
m-341 -19 c4 -21 -27 -35 -38 -17 -12 19 0 42 19 38 9 -2 17 -11 19 -21z m260
6 c-10 -2 -26 -2 -35 0 -10 3 -2 5 17 5 19 0 27 -2 18 -5z m1560 -31 c3 -17
-2 -22 -17 -22 -14 0 -21 6 -21 18 0 38 33 41 38 4z m-900 -4 c9 -9 9 -15 0
-26 -9 -10 -8 -16 3 -23 19 -13 -23 -2 -65 18 -30 14 -30 14 -3 8 22 -4 27 -2
27 15 0 22 20 26 38 8z m-919 -53 c0 -5 -4 -3 -9 5 -5 8 -9 22 -9 30 0 16 17
-16 18 -35z m1821 -30 c0 -8 -5 -17 -10 -20 -6 -3 -8 -16 -4 -29 3 -14 -1 -27
-10 -35 -12 -10 -16 -8 -21 9 -4 12 -2 27 4 33 6 8 6 18 1 27 -11 18 6 41 26
33 8 -3 14 -11 14 -18z m-2760 -22 c0 -7 -39 17 -46 28 -3 6 5 3 20 -6 14 -10
26 -19 26 -22z m985 21 c26 -17 32 -38 15 -49 -14 -9 -59 27 -60 48 0 21 14
22 45 1z m985 -9 c25 -13 41 -24 35 -24 -5 0 -30 11 -55 24 -25 13 -40 24 -35
24 6 0 30 -11 55 -24z m-1910 -52 c0 -7 -39 17 -46 28 -3 6 5 3 20 -6 14 -10
26 -19 26 -22z m1485 17 c13 -6 15 -9 5 -9 -8 0 -22 4 -30 9 -18 12 -2 12 25
0z m-1622 -53 c39 -30 132 -93 205 -141 72 -48 132 -89 132 -92 0 -7 -2 -6
-195 122 -166 110 -238 163 -222 164 4 0 40 -24 80 -53z m2142 43 c3 -6 -1 -7
-9 -4 -18 7 -21 14 -7 14 6 0 13 -4 16 -10z m111 -58 c-5 -4 -66 26 -66 33 0
3 16 -3 35 -12 19 -9 33 -18 31 -21z m-1020 -41 c196 -62 367 -121 362 -126
-2 -2 -97 28 -213 66 -115 37 -243 78 -282 89 -66 20 -88 30 -64 30 4 0 93
-27 197 -59z m575 44 c19 -8 27 -14 19 -14 -14 0 -72 28 -59 29 4 0 22 -7 40
-15z m-1071 -32 c30 -11 31 -12 6 -8 -16 4 -43 13 -60 20 -23 11 -25 13 -6 8
14 -3 41 -12 60 -20z m1440 -33 c52 -27 91 -49 85 -49 -5 0 -53 22 -105 49
-52 27 -90 49 -85 49 6 0 53 -22 105 -49z m-1353 4 c-3 -3 -12 -4 -19 -1 -8 3
-5 6 6 6 11 1 17 -2 13 -5z m-27 -19 c33 -19 21 -19 -21 0 -19 8 -27 14 -19
14 8 0 26 -6 40 -14z m1312 -10 c29 -14 46 -25 38 -24 -15 0 -111 48 -98 49 3
0 30 -11 60 -25z m-1996 -16 c3 -6 -5 -3 -20 6 -14 10 -26 19 -26 22 0 7 39
-17 46 -28z m894 1 c8 -5 11 -10 5 -10 -5 0 -17 5 -25 10 -8 5 -10 10 -5 10 6
0 17 -5 25 -10z m-380 -20 c8 -5 11 -10 5 -10 -5 0 -17 5 -25 10 -8 5 -10 10
-5 10 6 0 17 -5 25 -10z m510 -30 c8 -5 11 -10 5 -10 -5 0 -17 5 -25 10 -8 5
-10 10 -5 10 6 0 17 -5 25 -10z m-774 -16 c18 -14 18 -14 -6 -3 -31 14 -36 19
-24 19 6 0 19 -7 30 -16z m369 6 c13 -6 15 -9 5 -9 -8 0 -22 4 -30 9 -18 12
-2 12 25 0z m1730 -36 c17 -14 21 -21 10 -15 -11 6 -33 22 -50 37 -16 14 -21
21 -10 15 11 -6 34 -22 50 -37z m-1655 6 c8 -5 11 -10 5 -10 -5 0 -17 5 -25
10 -8 5 -10 10 -5 10 6 0 17 -5 25 -10z m860 0 c8 -5 11 -10 5 -10 -5 0 -17 5
-25 10 -8 5 -10 10 -5 10 6 0 17 -5 25 -10z m-1245 -18 c-3 -3 -11 0 -18 7 -9
10 -8 11 6 5 10 -3 15 -9 12 -12z m1295 -2 c8 -5 11 -10 5 -10 -5 0 -17 5 -25
10 -8 5 -10 10 -5 10 6 0 17 -5 25 -10z m-1736 -141 c-9 -15 -34 -10 -41 7 -9
23 19 38 34 17 7 -9 10 -20 7 -24z m353 3 c-17 -19 -23 -51 -9 -53 4 -1 26 -3
50 -3 35 -2 41 1 37 14 -3 9 2 25 11 36 14 18 15 18 4 -5 -17 -34 -1 -45 63
-42 19 1 27 6 27 20 0 10 8 25 18 32 14 11 15 11 5 -1 -7 -8 -13 -22 -13 -31
0 -24 80 -42 96 -23 8 11 15 10 37 -1 16 -8 29 -10 33 -4 3 5 35 7 76 3 45 -4
73 -2 77 4 4 7 20 8 46 2 66 -15 77 -14 63 10 -11 17 -10 22 7 37 17 17 18 17
6 1 -21 -28 -6 -51 29 -45 16 4 32 2 36 -4 4 -7 10 -6 19 1 9 7 19 5 36 -10
17 -14 20 -20 9 -21 -95 -8 -114 -8 -126 2 -9 8 -22 7 -47 -2 -21 -7 -45 -9
-63 -4 -16 5 -33 7 -39 5 -5 -1 -113 -4 -240 -6 -241 -3 -250 -1 -273 42 -9
16 -8 26 4 42 8 12 20 22 26 22 6 0 4 -8 -5 -18z m960 0 c-20 -22 -21 -34 -5
-50 8 -8 17 -8 31 -1 13 8 22 8 30 0 19 -19 34 -12 30 12 -3 15 3 29 19 42
l23 20 -17 -21 c-10 -11 -18 -25 -18 -30 0 -15 46 -32 63 -22 9 5 18 4 22 -2
12 -19 22 -10 17 15 -4 25 12 55 31 55 5 0 3 -8 -6 -18 -17 -19 -23 -52 -9
-53 4 0 26 -2 49 -4 40 -3 43 -2 37 19 -3 15 1 27 13 37 16 13 17 12 4 -3 -18
-24 -7 -48 21 -47 13 0 32 -1 42 -3 14 -2 22 5 27 22 4 14 7 18 8 9 2 -26 49
-38 138 -36 63 2 79 5 71 14 -12 15 15 63 34 63 7 0 2 -9 -10 -20 -12 -12 -22
-25 -22 -30 0 -24 82 -41 95 -19 5 7 14 5 30 -5 17 -11 25 -12 34 -3 9 9 16 9
31 -1 12 -7 20 -8 20 -2 0 5 11 10 25 10 14 0 25 -4 25 -10 0 -13 37 -13 45 1
4 6 23 10 44 9 56 -3 61 -1 61 19 0 11 4 22 9 25 4 3 6 -6 3 -19 -3 -19 1 -27
19 -34 15 -5 26 -5 30 1 9 15 44 5 44 -12 0 -12 -15 -15 -67 -15 -37 -1 -70
-3 -73 -7 -3 -3 -21 -2 -40 2 -19 4 -79 6 -135 5 -55 -2 -102 0 -104 3 -5 8
-87 6 -134 -4 -20 -4 -38 -2 -47 6 -11 9 -26 9 -68 0 -39 -9 -59 -9 -74 -2
-15 8 -23 8 -32 -1 -9 -9 -16 -9 -31 1 -24 15 -60 16 -60 2 0 -5 -11 -10 -25
-10 -14 0 -25 5 -25 10 0 6 -9 10 -20 10 -11 0 -20 -4 -20 -9 0 -11 -80 -9
-98 3 -8 5 -18 4 -25 -3 -14 -14 -47 -15 -47 -1 0 6 -11 10 -24 10 -14 0 -28
-4 -31 -10 -3 -5 -29 -10 -56 -10 -36 0 -51 4 -56 16 -3 9 0 20 8 25 16 10 84
7 95 -4 16 -16 35 -7 29 14 -6 18 17 59 33 59 3 0 -2 -8 -11 -18z m-97 4 c0
-2 -7 -7 -16 -10 -8 -3 -12 -2 -9 4 6 10 25 14 25 6z m-1004 -57 c4 -6 20 -8
39 -5 22 5 36 2 45 -9 10 -12 9 -16 -5 -21 -10 -4 -26 -2 -37 5 -10 6 -24 8
-30 5 -24 -15 -77 -10 -81 8 -3 9 -2 19 1 22 10 10 61 6 68 -5z m2182 -116 c3
-10 -25 -13 -118 -13 -74 0 -119 4 -115 10 3 5 27 8 53 6 26 -1 60 1 77 5 43
11 98 6 103 -8z m-261 -9 c-3 -3 -12 -4 -19 -1 -8 3 -5 6 6 6 11 1 17 -2 13
-5z"/>
<path d="M3396 5162 c-7 -12 46 -142 59 -142 3 0 -4 19 -17 43 -12 23 -24 58
-28 77 -3 23 -8 31 -14 22z"/>
<path d="M3700 5100 c0 -13 -33 -30 -64 -32 -15 -1 -26 -3 -26 -4 0 -1 3 -9 6
-18 6 -16 34 -23 34 -8 0 5 18 16 40 26 39 17 55 46 25 46 -8 0 -15 -4 -15
-10z"/>
<path d="M3390 5095 c0 -5 5 -17 10 -25 5 -8 10 -10 10 -5 0 6 -5 17 -10 25
-5 8 -10 11 -10 5z"/>
<path d="M3496 4945 c4 -8 10 -15 15 -15 4 0 6 7 3 15 -4 8 -10 15 -15 15 -4
0 -6 -7 -3 -15z"/>
<path d="M3699 4918 c30 -45 49 -64 56 -57 1 2 -17 27 -42 54 l-46 50 32 -47z"/>
<path d="M3640 4857 c0 -2 15 -16 33 -33 l32 -29 -29 33 c-28 30 -36 37 -36
29z"/>
<path d="M3809 4801 c24 -20 30 -30 20 -33 -9 -3 -3 -10 18 -21 44 -23 55 -21
18 3 -16 11 -24 20 -17 20 7 0 -3 14 -21 30 -19 17 -39 30 -43 30 -5 0 6 -13
25 -29z"/>
<path d="M4005 4755 c-22 -14 -34 -25 -27 -25 6 0 12 -9 12 -20 0 -27 34 -26
61 1 20 20 23 60 4 65 -5 2 -28 -8 -50 -21z m15 -10 c-7 -8 -17 -15 -23 -15
-6 0 -2 7 9 15 25 19 30 19 14 0z"/>
<path d="M4081 4757 c-1 -19 -12 -39 -31 -57 -29 -27 -41 -70 -20 -70 6 0 14
-8 17 -17 6 -17 52 -78 54 -71 0 2 2 11 4 22 2 10 8 23 14 29 19 19 12 90 -13
142 -22 45 -24 47 -25 22z"/>
<path d="M3775 4720 c3 -5 11 -10 16 -10 6 0 27 -12 46 -27 22 -17 34 -22 31
-13 -2 8 -22 25 -44 37 -42 25 -59 29 -49 13z"/>
<path d="M3920 4681 c0 -4 11 -13 25 -19 14 -6 25 -8 25 -3 0 4 -11 13 -25 19
-14 6 -25 8 -25 3z"/>
<path d="M3913 4644 c16 -9 32 -13 35 -9 9 9 -19 25 -43 24 -16 0 -15 -2 8
-15z"/>
<path d="M2595 4800 c10 -11 20 -20 23 -20 3 0 -3 9 -13 20 -10 11 -20 20 -23
20 -3 0 3 -9 13 -20z"/>
<path d="M3965 3520 c-3 -5 -2 -10 4 -10 5 0 13 5 16 10 3 6 2 10 -4 10 -5 0
-13 -4 -16 -10z"/>
<path d="M4042 3320 c0 -14 2 -19 5 -12 2 6 2 18 0 25 -3 6 -5 1 -5 -13z"/>
<path d="M3672 3250 c0 -14 2 -19 5 -12 2 6 2 18 0 25 -3 6 -5 1 -5 -13z"/>
<path d="M3681 3204 c0 -11 3 -14 6 -6 3 7 2 16 -1 19 -3 4 -6 -2 -5 -13z"/>
<path d="M3291 3324 c0 -11 3 -14 6 -6 3 7 2 16 -1 19 -3 4 -6 -2 -5 -13z"/>
<path d="M3290 3260 c0 -32 13 -90 21 -90 9 0 0 68 -12 90 -7 13 -8 13 -9 0z"/>
<path d="M3320 3130 c0 -11 4 -20 9 -20 5 0 7 9 4 20 -3 11 -7 20 -9 20 -2 0
-4 -9 -4 -20z"/>
<path d="M3366 3078 c3 -13 13 -35 20 -50 17 -32 18 -41 4 -33 -6 3 -7 -1 -3
-10 4 -11 8 -13 13 -5 4 6 22 -14 44 -50 21 -34 40 -59 43 -56 3 3 -4 18 -15
34 -12 16 -39 66 -62 110 -39 80 -58 105 -44 60z"/>
<path d="M3423 2915 c0 -8 4 -15 9 -15 4 0 8 4 8 9 0 6 -4 12 -8 15 -5 3 -9
-1 -9 -9z"/>
<path d="M3460 2861 c0 -5 5 -13 10 -16 6 -3 10 -2 10 4 0 5 -4 13 -10 16 -5
3 -10 2 -10 -4z"/>
<path d="M3674 2415 c21 -16 32 -13 21 4 -3 6 -14 11 -23 11 -15 -1 -15 -2 2
-15z"/>
<path d="M3500 2404 c0 -8 5 -12 10 -9 6 3 10 10 10 16 0 5 -4 9 -10 9 -5 0
-10 -7 -10 -16z"/>
<path d="M3775 2350 c27 -12 43 -12 25 0 -8 5 -22 9 -30 9 -10 0 -8 -3 5 -9z"/>
<path d="M3925 2301 c44 -16 111 -42 149 -60 80 -36 112 -41 47 -7 -30 16 -40
25 -30 29 8 3 1 4 -16 1 -24 -5 -27 -3 -15 6 13 10 12 11 -3 6 -10 -3 -57 8
-104 24 -46 17 -90 30 -96 29 -7 0 24 -13 68 -28z"/>
<path d="M3480 2290 c0 -5 7 -10 15 -10 8 0 15 5 15 10 0 6 -7 10 -15 10 -8 0
-15 -4 -15 -10z"/>
<path d="M3573 2273 c9 -2 17 -8 17 -13 0 -5 7 -7 15 -4 8 4 15 1 15 -5 0 -6
7 -8 17 -4 12 5 14 3 8 -7 -6 -10 -4 -12 9 -7 10 4 23 7 29 8 7 0 -15 9 -48
19 -33 11 -64 19 -70 19 -5 -1 -2 -3 8 -6z"/>
<path d="M3470 2260 c0 -8 -10 -9 -30 -5 -16 4 -30 4 -30 2 0 -6 29 -15 123
-42 32 -9 55 -20 52 -25 -4 -6 5 -6 21 0 15 6 35 8 45 5 11 -4 19 -2 19 4 0 8
-52 28 -182 67 -10 3 -18 0 -18 -6z m125 -45 c39 -17 21 -18 -25 0 -19 7 -28
14 -20 14 8 0 29 -6 45 -14z"/>
<path d="M3370 2222 c0 -5 26 -19 59 -31 66 -24 71 -25 71 -12 0 5 -24 17 -52
27 -29 9 -59 19 -65 22 -7 2 -13 0 -13 -6z"/>
<path d="M3365 2170 c3 -5 8 -10 11 -10 2 0 4 5 4 10 0 6 -5 10 -11 10 -5 0
-7 -4 -4 -10z"/>
<path d="M3545 2140 c-6 -9 -2 -12 28 -14 6 -1 15 -5 19 -11 4 -5 22 -10 40
-11 l33 -2 -35 18 c-51 26 -78 32 -85 20z"/>
<path d="M4284 2131 c4 -6 16 -16 28 -22 15 -8 18 -8 14 0 -4 6 -16 16 -28 22
-15 8 -18 8 -14 0z"/>
<path d="M3673 2087 c0 -7 11 -13 24 -13 27 -2 27 -1 -3 14 -15 8 -21 8 -21
-1z"/>
<path d="M3753 2071 c16 -10 25 -21 20 -23 -4 -3 -2 -3 6 -1 7 2 29 -6 48 -18
19 -12 36 -19 39 -16 3 3 -23 21 -59 41 -68 38 -102 49 -54 17z"/>
<path d="M3372 1994 c2 -33 8 -50 21 -55 19 -10 30 -16 107 -59 71 -40 100
-47 100 -26 0 21 5 20 57 -5 43 -21 58 -34 26 -22 -22 8 -15 -1 12 -15 18 -9
20 -7 19 25 -1 35 -2 36 -160 119 -87 46 -165 84 -172 84 -9 0 -12 -13 -10
-46z m219 -100 c10 -13 10 -17 -2 -25 -20 -13 -34 -6 -37 19 -4 26 19 30 39 6z"/>
<path d="M3370 1910 c0 -11 5 -20 10 -20 6 0 10 9 10 20 0 11 -4 20 -10 20 -5
0 -10 -9 -10 -20z"/>
<path d="M3434 1846 c11 -9 24 -16 30 -16 12 0 7 5 -24 19 -24 11 -24 11 -6
-3z"/>
<path d="M3370 1841 c0 -8 120 -71 135 -71 3 0 5 5 5 10 0 6 -30 24 -66 40
-74 34 -74 34 -74 21z"/>
<path d="M3640 1810 c8 -5 22 -10 30 -10 13 0 13 1 0 10 -8 5 -22 10 -30 10
-13 0 -13 -1 0 -10z"/>
<path d="M3735 1790 c3 -5 0 -10 -7 -10 -9 0 -9 -3 2 -10 8 -5 20 -10 25 -10
6 0 3 5 -5 10 -12 8 -12 10 5 10 17 0 17 2 5 10 -20 13 -33 13 -25 0z"/>
<path d="M3373 1771 c-11 -17 -5 -22 64 -51 66 -27 79 -30 100 -19 23 12 21
14 -46 45 -98 45 -104 47 -118 25z"/>
<path d="M3800 1760 c8 -5 20 -10 25 -10 6 0 3 5 -5 10 -8 5 -19 10 -25 10 -5
0 -3 -5 5 -10z"/>
<path d="M3850 1715 c25 -13 50 -24 55 -24 6 0 -10 11 -35 24 -25 13 -49 24
-55 24 -5 0 10 -11 35 -24z"/>
<path d="M3360 1701 c0 -14 18 -23 31 -15 8 4 7 9 -2 15 -18 11 -29 11 -29 0z"/>
<path d="M3427 1659 c-17 -18 -19 -19 -34 -3 -12 12 -18 13 -21 4 -2 -6 0 -15
4 -20 8 -7 151 -70 160 -70 2 0 4 8 4 19 0 10 9 21 20 24 30 8 24 25 -12 40
-61 25 -101 27 -121 6z"/>
<path d="M3660 1600 c8 -5 20 -10 25 -10 6 0 3 5 -5 10 -8 5 -19 10 -25 10 -5
0 -3 -5 5 -10z"/>
<path d="M4107 1479 c7 -7 15 -10 18 -7 3 3 -2 9 -12 12 -14 6 -15 5 -6 -5z"/>
<path d="M4054 1276 c11 -9 24 -16 30 -16 12 0 7 5 -24 19 -24 11 -24 11 -6
-3z"/>
<path d="M1690 3031 c0 -15 79 -111 92 -111 6 0 -49 75 -88 119 -2 2 -4 -1 -4
-8z"/>
<path d="M4712 2718 c-14 -14 -16 -54 -3 -62 5 -3 9 -17 9 -31 0 -14 -4 -28
-9 -31 -13 -8 -11 -58 3 -72 8 -8 8 -15 1 -24 -8 -9 -7 -17 3 -26 12 -11 14 7
14 123 0 74 -1 135 -3 135 -2 0 -8 -5 -15 -12z"/>
<path d="M4717 2443 c-11 -10 -8 -61 3 -68 6 -4 10 10 10 34 0 42 -2 46 -13
34z"/>
<path d="M4710 2245 c0 -50 4 -85 10 -85 6 0 10 35 10 85 0 50 -4 85 -10 85
-6 0 -10 -35 -10 -85z"/>
<path d="M4714 2084 c7 -39 16 -42 16 -6 0 18 -5 32 -10 32 -6 0 -8 -12 -6
-26z"/>
<path d="M4710 1960 c0 -22 5 -40 10 -40 6 0 10 18 10 40 0 22 -4 40 -10 40
-5 0 -10 -18 -10 -40z"/>
<path d="M4722 1620 c0 -19 2 -27 5 -17 2 9 2 25 0 35 -3 9 -5 1 -5 -18z"/>
<path d="M4707 1433 c-12 -19 -19 -83 -9 -83 6 0 13 18 17 41 7 39 3 59 -8 42z"/>
<path d="M4680 1299 c0 -5 5 -7 10 -4 6 3 10 8 10 11 0 2 -4 4 -10 4 -5 0 -10
-5 -10 -11z"/>
<path d="M1931 3155 c0 -5 8 -26 19 -45 11 -19 19 -30 19 -25 0 6 -8 26 -19
45 -11 19 -19 31 -19 25z"/>
<path d="M1625 2870 c10 -11 23 -20 28 -20 6 0 2 9 -8 20 -10 11 -23 20 -28
20 -6 0 -2 -9 8 -20z"/>
<path d="M1550 2560 c0 -5 7 -10 16 -10 8 0 12 5 9 10 -3 6 -10 10 -16 10 -5
0 -9 -4 -9 -10z"/>
<path d="M1556 2521 c10 -10 206 -72 211 -67 2 2 -40 20 -93 40 -94 35 -138
45 -118 27z"/>
<path d="M1550 2480 c0 -15 7 -20 25 -20 30 0 33 15 6 30 -27 14 -31 13 -31
-10z"/>
<path d="M1640 2449 c0 -5 5 -7 10 -4 6 3 10 8 10 11 0 2 -4 4 -10 4 -5 0 -10
-5 -10 -11z"/>
<path d="M1713 2443 c-26 -5 -29 -15 -10 -31 17 -14 76 -20 76 -8 -1 5 5 13
13 18 9 7 7 8 -8 3 -25 -7 -56 3 -48 16 3 5 4 8 2 8 -2 -1 -13 -4 -25 -6z"/>
<path d="M1545 2412 c6 -5 21 -13 35 -17 17 -5 22 -4 15 3 -5 5 -21 13 -35 17
-17 5 -22 4 -15 -3z"/>
<path d="M1551 2346 c10 -9 69 -36 69 -32 0 6 -55 36 -66 36 -4 0 -5 -2 -3 -4z"/>
<path d="M1849 2285 c41 -19 76 -33 79 -31 2 3 -20 16 -51 30 -89 39 -109 40
-28 1z"/>
<path d="M1574 2295 c11 -8 25 -15 30 -15 6 0 2 7 -8 15 -11 8 -25 15 -30 15
-6 0 -2 -7 8 -15z"/>
<path d="M1615 1803 c35 -33 145 -101 145 -89 0 4 -99 70 -130 86 -14 7 -20 8
-15 3z"/>
<path d="M1847 1758 c14 -17 204 -118 222 -118 30 0 1 20 -101 70 -135 67
-136 67 -121 48z"/>
<path d="M1800 1683 c0 -5 14 -17 32 -28 43 -25 221 -115 229 -115 4 0 10 7
13 16 3 8 2 12 -4 9 -5 -3 -65 22 -132 57 -147 76 -138 72 -138 61z"/>
<path d="M1746 1673 c-9 -10 -7 -23 4 -23 5 0 29 -13 52 -29 26 -18 47 -26 52
-21 12 12 13 11 -51 48 -28 17 -54 28 -57 25z"/>
<path d="M2013 1606 c0 -8 6 -12 15 -8 10 3 13 1 8 -6 -5 -8 -1 -10 10 -5 13
5 15 3 9 -7 -5 -9 -4 -11 4 -6 14 9 53 -3 46 -14 -3 -5 0 -12 6 -16 8 -4 9 -3
5 4 -4 7 -1 12 8 12 9 0 16 5 16 10 0 6 -5 10 -11 10 -5 0 -8 4 -5 9 4 5 -4 7
-16 4 -19 -4 -20 -3 -8 7 12 9 11 10 -7 5 -12 -3 -24 -1 -28 5 -9 15 -52 12
-52 -4z"/>
<path d="M2130 1613 c8 -3 24 -10 35 -15 20 -9 20 -9 1 6 -11 9 -27 16 -35 15
-14 0 -14 -1 -1 -6z"/>
<path d="M1925 1570 c6 -10 3 -12 -11 -7 -18 7 -18 7 0 -8 23 -18 33 -19 41
-5 4 6 -1 7 -11 3 -11 -4 -15 -3 -10 5 3 6 1 14 -5 18 -8 5 -9 3 -4 -6z"/>
<path d="M2285 1565 c34 -16 72 -21 45 -6 -8 5 -28 11 -45 14 l-30 6 30 -14z"/>
<path d="M1660 1526 c0 -7 71 -58 76 -53 2 2 -14 16 -36 31 -22 14 -40 25 -40
22z"/>
<path d="M2007 1509 c7 -7 15 -10 18 -7 3 3 -2 9 -12 12 -14 6 -15 5 -6 -5z"/>
<path d="M2187 1495 c76 -35 107 -39 38 -6 -33 16 -67 30 -75 30 -8 0 8 -11
37 -24z"/>
<path d="M1920 2616 c0 -3 9 -10 20 -16 11 -6 20 -8 20 -6 0 3 -9 10 -20 16
-11 6 -20 8 -20 6z"/>
<path d="M2060 1800 c8 -5 20 -10 25 -10 6 0 3 5 -5 10 -8 5 -19 10 -25 10 -5
0 -3 -5 5 -10z"/>
</g>
</svg>
